<svg width="504" height="374" viewBox="0 0 504 374" fill="none" xmlns="http://www.w3.org/2000/svg">
<path d="M453.499 341.248H420.114V341.5H453.499V341.248Z" fill="#EBEBEB"/>
<path d="M333.861 343.98H325.101V344.232H333.861V343.98Z" fill="#EBEBEB"/>
<path d="M419.097 331.885H399.754V332.137H419.097V331.885Z" fill="#EBEBEB"/>
<path d="M96.4158 333.578H52.8803V333.83H96.4158V333.578Z" fill="#EBEBEB"/>
<path d="M111.767 333.578H105.386V333.83H111.767V333.578Z" fill="#EBEBEB"/>
<path d="M226.952 337.832H132.523V338.084H226.952V337.832Z" fill="#EBEBEB"/>
<path d="M504 330.059H0V330.311H504V330.059Z" fill="#EBEBEB"/>
<path d="M291.352 181.592H226.619V303.6H291.352V181.592Z" fill="#EBEBEB"/>
<path d="M239.049 165.947V181.591H244.159H273.815H278.925V165.947H239.049Z" fill="#EBEBEB"/>
<path d="M239.049 185.734H230.763V194.02H239.049V185.734Z" fill="#FAFAFA"/>
<path d="M255.104 185.734H246.818V194.02H255.104V185.734Z" fill="#FAFAFA"/>
<path d="M271.152 185.734H262.866V194.02H271.152V185.734Z" fill="#FAFAFA"/>
<path d="M287.21 185.734H278.924V194.02H287.21V185.734Z" fill="#FAFAFA"/>
<path d="M239.049 200.793H230.763V209.079H239.049V200.793Z" fill="#FAFAFA"/>
<path d="M255.104 200.793H246.818V209.079H255.104V200.793Z" fill="#FAFAFA"/>
<path d="M271.152 200.793H262.866V209.079H271.152V200.793Z" fill="#FAFAFA"/>
<path d="M287.21 200.793H278.924V209.079H287.21V200.793Z" fill="#FAFAFA"/>
<path d="M239.049 215.844H230.763V224.13H239.049V215.844Z" fill="#FAFAFA"/>
<path d="M255.104 215.844H246.818V224.13H255.104V215.844Z" fill="#FAFAFA"/>
<path d="M271.152 215.844H262.866V224.13H271.152V215.844Z" fill="#FAFAFA"/>
<path d="M255.104 172.711H246.818V180.997H255.104V172.711Z" fill="#FAFAFA"/>
<path d="M271.152 172.711H262.866V180.997H271.152V172.711Z" fill="#FAFAFA"/>
<path d="M287.21 215.844H278.924V224.13H287.21V215.844Z" fill="#FAFAFA"/>
<path d="M239.049 230.902H230.763V239.188H239.049V230.902Z" fill="#FAFAFA"/>
<path d="M255.104 230.902H246.818V239.188H255.104V230.902Z" fill="#FAFAFA"/>
<path d="M271.152 230.902H262.866V239.188H271.152V230.902Z" fill="#FAFAFA"/>
<path d="M287.21 230.902H278.924V239.188H287.21V230.902Z" fill="#FAFAFA"/>
<path d="M239.049 245.963H230.763V254.249H239.049V245.963Z" fill="#FAFAFA"/>
<path d="M255.104 245.963H246.818V254.249H255.104V245.963Z" fill="#FAFAFA"/>
<path d="M271.152 245.963H262.866V254.249H271.152V245.963Z" fill="#FAFAFA"/>
<path d="M287.21 245.963H278.924V254.249H287.21V245.963Z" fill="#FAFAFA"/>
<path d="M239.049 261.021H230.763V269.307H239.049V261.021Z" fill="#FAFAFA"/>
<path d="M255.104 261.021H246.818V269.307H255.104V261.021Z" fill="#FAFAFA"/>
<path d="M271.152 261.021H262.866V269.307H271.152V261.021Z" fill="#FAFAFA"/>
<path d="M287.21 261.021H278.924V269.307H287.21V261.021Z" fill="#FAFAFA"/>
<path d="M239.049 276.082H230.763V284.368H239.049V276.082Z" fill="#FAFAFA"/>
<path d="M255.104 276.082H246.818V284.368H255.104V276.082Z" fill="#FAFAFA"/>
<path d="M271.152 276.082H262.866V284.368H271.152V276.082Z" fill="#FAFAFA"/>
<path d="M287.21 276.082H278.924V284.368H287.21V276.082Z" fill="#FAFAFA"/>
<path d="M225.278 181.672H292.683V179.978H225.278V181.672Z" fill="#F5F5F5"/>
<path d="M228.422 160.463H151.472V303.599H228.422V160.463Z" fill="#E6E6E6"/>
<path d="M166.248 141.865V160.463H172.316H207.576H213.644V141.865H166.248Z" fill="#E6E6E6"/>
<path d="M149.878 160.564H230.004V158.559H149.878V160.564Z" fill="#F5F5F5"/>
<path d="M164.244 141.865H215.662V139.859H164.244V141.865Z" fill="#F5F5F5"/>
<path d="M212.377 160.463H135.426V303.599H212.377V160.463Z" fill="#F0F0F0"/>
<path d="M150.203 141.865V160.463H156.271H191.531H197.599V141.865H150.203Z" fill="#F0F0F0"/>
<path d="M150.203 165.383H140.355V175.231H150.203V165.383Z" fill="white"/>
<path d="M169.284 165.383H159.436V175.231H169.284V165.383Z" fill="white"/>
<path d="M188.365 165.383H178.517V175.231H188.365V165.383Z" fill="white"/>
<path d="M207.447 165.383H197.598V175.231H207.447V165.383Z" fill="white"/>
<path d="M150.203 183.285H140.355V193.133H150.203V183.285Z" fill="white"/>
<path d="M169.284 183.285H159.436V193.133H169.284V183.285Z" fill="white"/>
<path d="M188.365 183.285H178.517V193.133H188.365V183.285Z" fill="white"/>
<path d="M207.447 183.285H197.598V193.133H207.447V183.285Z" fill="white"/>
<path d="M150.203 201.188H140.355V211.036H150.203V201.188Z" fill="white"/>
<path d="M169.284 201.188H159.436V211.036H169.284V201.188Z" fill="white"/>
<path d="M188.365 201.188H178.517V211.036H188.365V201.188Z" fill="white"/>
<path d="M169.284 149.91H159.436V159.758H169.284V149.91Z" fill="white"/>
<path d="M188.365 149.91H178.517V159.758H188.365V149.91Z" fill="white"/>
<path d="M207.447 201.188H197.598V211.036H207.447V201.188Z" fill="white"/>
<path d="M150.203 219.088H140.355V228.936H150.203V219.088Z" fill="white"/>
<path d="M169.284 219.088H159.436V228.936H169.284V219.088Z" fill="white"/>
<path d="M188.365 219.088H178.517V228.936H188.365V219.088Z" fill="white"/>
<path d="M207.447 219.088H197.598V228.936H207.447V219.088Z" fill="white"/>
<path d="M150.203 236.99H140.355V246.838H150.203V236.99Z" fill="white"/>
<path d="M169.284 236.99H159.436V246.838H169.284V236.99Z" fill="white"/>
<path d="M188.365 236.99H178.517V246.838H188.365V236.99Z" fill="white"/>
<path d="M207.447 236.99H197.598V246.838H207.447V236.99Z" fill="white"/>
<path d="M150.203 254.883H140.355V264.731H150.203V254.883Z" fill="white"/>
<path d="M169.284 254.883H159.436V264.731H169.284V254.883Z" fill="white"/>
<path d="M188.365 254.883H178.517V264.731H188.365V254.883Z" fill="white"/>
<path d="M207.447 254.883H197.598V264.731H207.447V254.883Z" fill="white"/>
<path d="M150.203 272.785H140.355V282.633H150.203V272.785Z" fill="white"/>
<path d="M169.284 272.785H159.436V282.633H169.284V272.785Z" fill="white"/>
<path d="M188.365 272.785H178.517V282.633H188.365V272.785Z" fill="white"/>
<path d="M207.447 272.785H197.598V282.633H207.447V272.785Z" fill="white"/>
<path d="M133.842 160.564H213.968V158.559H133.842V160.564Z" fill="#F5F5F5"/>
<path d="M148.196 141.865H199.614V139.859H148.196V141.865Z" fill="#F5F5F5"/>
<path d="M96.697 225.299H53.6251V303.026H122.361V225.299V195.291L96.697 225.299Z" fill="#F5F5F5"/>
<path d="M135.192 195.291H122.36V303.026H135.192V195.291Z" fill="#E6E6E6"/>
<path d="M67.0622 239.008H56.831V249.239H67.0622V239.008Z" fill="#E0E0E0"/>
<path opacity="0.3" d="M67.0616 239.008H57.9695V249.239H67.0616V239.008Z" fill="white"/>
<path d="M67.0622 256.223H56.831V266.454H67.0622V256.223Z" fill="#E0E0E0"/>
<path opacity="0.3" d="M67.0616 256.223H57.9695V266.454H67.0616V256.223Z" fill="white"/>
<path d="M67.0622 273.43H56.831V283.661H67.0622V273.43Z" fill="#E0E0E0"/>
<path opacity="0.3" d="M67.0616 273.43H57.9695V283.661H67.0616V273.43Z" fill="white"/>
<path opacity="0.2" d="M68.2007 273.43H57.9695V283.661H68.2007V273.43Z" fill="white"/>
<path d="M84.3105 239.008H74.0793V249.239H84.3105V239.008Z" fill="#E0E0E0"/>
<path opacity="0.3" d="M84.3084 239.008H75.2162V249.239H84.3084V239.008Z" fill="white"/>
<path d="M84.3105 256.223H74.0793V266.454H84.3105V256.223Z" fill="#E0E0E0"/>
<path opacity="0.3" d="M84.3084 256.223H75.2162V266.454H84.3084V256.223Z" fill="white"/>
<path d="M84.3105 273.43H74.0793V283.661H84.3105V273.43Z" fill="#E0E0E0"/>
<path opacity="0.3" d="M84.3084 273.43H75.2162V283.661H84.3084V273.43Z" fill="white"/>
<path opacity="0.2" d="M85.4474 273.43H75.2162V283.661H85.4474V273.43Z" fill="white"/>
<path d="M101.556 239.008H91.3245V249.239H101.556V239.008Z" fill="#E0E0E0"/>
<path opacity="0.3" d="M101.557 239.008H92.4645V249.239H101.557V239.008Z" fill="white"/>
<path d="M101.556 256.223H91.3245V266.454H101.556V256.223Z" fill="#E0E0E0"/>
<path opacity="0.3" d="M101.557 256.223H92.4645V266.454H101.557V256.223Z" fill="white"/>
<path d="M101.556 273.43H91.3245V283.661H101.556V273.43Z" fill="#E0E0E0"/>
<path opacity="0.3" d="M101.557 273.43H92.4645V283.661H101.557V273.43Z" fill="white"/>
<path opacity="0.2" d="M102.696 273.43H92.4645V283.661H102.696V273.43Z" fill="white"/>
<path d="M118.792 239.008H108.56V249.239H118.792V239.008Z" fill="#E0E0E0"/>
<path opacity="0.3" d="M118.792 239.008H109.7V249.239H118.792V239.008Z" fill="white"/>
<path d="M118.792 256.223H108.56V266.454H118.792V256.223Z" fill="#E0E0E0"/>
<path opacity="0.3" d="M118.792 256.223H109.7V266.454H118.792V256.223Z" fill="white"/>
<path d="M118.792 273.43H108.56V283.661H118.792V273.43Z" fill="#E0E0E0"/>
<path opacity="0.3" d="M118.792 273.43H109.7V283.661H118.792V273.43Z" fill="white"/>
<path opacity="0.2" d="M119.941 273.43H109.71V283.661H119.941V273.43Z" fill="white"/>
<path d="M346.632 57.0928L373.475 56.7904C374.428 56.7781 375.363 57.0444 376.167 57.5565C384.654 65.6205 394.431 60.9635 398.776 58.1411C400.429 57.0589 402.354 56.4649 404.33 56.4276L434.237 56.0848C445.467 55.9538 447.997 40.2088 437.352 36.6506L436.949 36.4691C448.561 26.5706 422.595 6.22915 394.976 35.1084C397.052 25.5727 372.245 29.2922 364.796 42.3559C361.994 33.9088 338.477 48.9885 346.632 57.0928Z" fill="#F0F0F0"/>
<path d="M193.234 96.7787H237.808C243.513 96.7787 244.864 88.7853 239.501 86.9104L239.289 86.8398C245.257 81.8704 232.173 71.3872 217.95 85.9024C219.059 81.064 206.418 82.8078 202.558 89.4102C201.187 85.0758 189.131 92.6056 193.234 96.7787Z" fill="#F0F0F0"/>
<path d="M68.454 58.4946H144.175C153.872 58.4946 156.21 44.9169 147.048 41.7215L146.695 41.6106C156.835 33.1636 134.599 15.4027 110.407 40.0079C112.292 31.7927 90.8215 34.7663 84.2594 45.9753C81.9612 38.6169 61.4887 51.3983 68.454 58.4946Z" fill="#F0F0F0"/>
<path d="M190.998 171.258C181.119 159.606 168.741 155.624 159.659 159.969C158.353 160.594 156.878 160.774 155.459 160.481C154.041 160.188 152.758 159.438 151.807 158.346C140.819 146.441 123.008 145.03 115.619 156.259C114.783 157.531 114.074 158.881 113.503 160.291C112.596 162.561 111.087 164.541 109.138 166.017C107.814 167 106.678 168.212 105.781 169.595C103.384 173.571 102.271 178.189 102.596 182.82C102.652 183.511 102.508 184.204 102.183 184.817C101.858 185.429 101.365 185.936 100.762 186.278C98.7044 187.355 96.9664 188.954 95.7216 190.914C89.734 199.986 92.375 216.215 101.618 227.112C109.854 236.819 120.549 239.046 127.01 232.978C127.273 232.726 127.623 232.585 127.988 232.585C128.352 232.585 128.703 232.726 128.965 232.978C133.622 237.161 139.045 237.192 141.838 232.656C141.945 232.458 142.097 232.288 142.282 232.16C142.467 232.032 142.68 231.95 142.902 231.919C143.125 231.889 143.352 231.911 143.565 231.985C143.777 232.059 143.969 232.181 144.126 232.343C148.924 237.151 154.72 237.383 157.673 232.656C158.205 231.776 158.613 230.826 158.883 229.833C158.924 229.623 159.01 229.423 159.136 229.249C159.261 229.074 159.422 228.929 159.609 228.823C159.796 228.717 160.003 228.652 160.217 228.633C160.431 228.615 160.646 228.642 160.848 228.714C163.983 229.974 167.058 229.43 169.154 226.95C169.362 226.693 169.657 226.519 169.983 226.462C170.309 226.404 170.645 226.467 170.928 226.638C181.684 233.069 193.024 231.829 199.334 222.243C207.771 209.411 204.102 186.6 190.998 171.258Z" fill="#0FC94B"/>
<path opacity="0.6" d="M190.998 171.258C181.119 159.606 168.741 155.624 159.659 159.969C158.353 160.594 156.878 160.774 155.459 160.481C154.041 160.188 152.758 159.438 151.807 158.346C140.819 146.441 123.008 145.03 115.619 156.259C114.783 157.531 114.074 158.881 113.503 160.291C112.596 162.561 111.087 164.541 109.138 166.017C107.814 167 106.678 168.212 105.781 169.595C103.384 173.571 102.271 178.189 102.596 182.82C102.652 183.511 102.508 184.204 102.183 184.817C101.858 185.429 101.365 185.936 100.762 186.278C98.7044 187.355 96.9664 188.954 95.7216 190.914C89.734 199.986 92.375 216.215 101.618 227.112C109.854 236.819 120.549 239.046 127.01 232.978C127.273 232.726 127.623 232.585 127.988 232.585C128.352 232.585 128.703 232.726 128.965 232.978C133.622 237.161 139.045 237.192 141.838 232.656C141.945 232.458 142.097 232.288 142.282 232.16C142.467 232.032 142.68 231.95 142.902 231.919C143.125 231.889 143.352 231.911 143.565 231.985C143.777 232.059 143.969 232.181 144.126 232.343C148.924 237.151 154.72 237.383 157.673 232.656C158.205 231.776 158.613 230.826 158.883 229.833C158.924 229.623 159.01 229.423 159.136 229.249C159.261 229.074 159.422 228.929 159.609 228.823C159.796 228.717 160.003 228.652 160.217 228.633C160.431 228.615 160.646 228.642 160.848 228.714C163.983 229.974 167.058 229.43 169.154 226.95C169.362 226.693 169.657 226.519 169.983 226.462C170.309 226.404 170.645 226.467 170.928 226.638C181.684 233.069 193.024 231.829 199.334 222.243C207.771 209.411 204.102 186.6 190.998 171.258Z" fill="white"/>
<path d="M125.244 238.291L134.609 247.454C133.863 260.386 133.248 290.173 133.248 290.173L129.921 310.998L159.264 311.28C159.264 311.28 157.934 293.691 157.934 292.743C157.934 291.796 152.259 258.098 152.259 258.098L150.243 239.228L165.363 234.36L168.125 225.953L179.213 219.32L184.646 210.521L182.549 209.986L176.501 218.111L169.495 219.714L172.519 212.234H169.183L160.847 229.572L150.101 231.89L151.503 207.547C142.914 211.781 140.163 204.725 140.163 204.725C140.163 204.725 136.614 237.495 135.365 241.224L129.831 238.291L123.783 228.292H121.242L125.244 238.291Z" fill="#0FC94B"/>
<path d="M82.3038 278.953H80.822V298.004H82.3038V278.953Z" fill="#0FC94B"/>
<path opacity="0.2" d="M82.3038 278.953H80.822V298.004H82.3038V278.953Z" fill="black"/>
<path d="M113.018 278.953H111.536V298.004H113.018V278.953Z" fill="#0FC94B"/>
<path opacity="0.2" d="M113.018 278.953H111.536V298.004H113.018V278.953Z" fill="black"/>
<path d="M114.702 296.15H79.2002V298.469H114.702V296.15Z" fill="#0FC94B"/>
<path opacity="0.2" d="M114.702 296.15H79.2002V298.469H114.702V296.15Z" fill="white"/>
<path d="M81.5574 298.398H80.0757V311.291H81.5574V298.398Z" fill="#0FC94B"/>
<path opacity="0.2" d="M81.5574 298.398H80.0757V311.291H81.5574V298.398Z" fill="black"/>
<path d="M113.966 298.398H112.484V311.291H113.966V298.398Z" fill="#0FC94B"/>
<path opacity="0.2" d="M113.966 298.398H112.484V311.291H113.966V298.398Z" fill="black"/>
<path d="M114.702 279.811H79.2002V291.019H114.702V279.811Z" fill="#0FC94B"/>
<path opacity="0.2" d="M114.702 279.811H79.2002V291.019H114.702V279.811Z" fill="white"/>
<path d="M114.631 298.004H79.2505V301.613H114.631V298.004Z" fill="#0FC94B"/>
<path opacity="0.1" d="M114.631 298.004H79.2505V301.613H114.631V298.004Z" fill="black"/>
<path d="M79.249 292.873H77.7673V311.269H79.249V292.873Z" fill="#0FC94B"/>
<path d="M79.825 291.029H77.2445V293.61H79.825V291.029Z" fill="#0FC94B"/>
<path opacity="0.2" d="M79.825 291.029H77.2445V293.61H79.825V291.029Z" fill="white"/>
<path d="M81.8303 291.029H79.8143V293.61H81.8303V291.029Z" fill="#0FC94B"/>
<path d="M114.64 311.27H116.122V292.874H114.64V311.27Z" fill="#0FC94B"/>
<path d="M114.077 293.6H116.648V291.019H114.077V293.6Z" fill="#0FC94B"/>
<path opacity="0.2" d="M114.077 293.6H116.648V291.019H114.077V293.6Z" fill="white"/>
<path d="M114.066 291.029H112.05V293.61H114.066V291.029Z" fill="#0FC94B"/>
<path opacity="0.1" d="M81.8303 291.029H79.8143V293.61H81.8303V291.029Z" fill="black"/>
<path opacity="0.1" d="M114.066 291.029H112.05V293.61H114.066V291.029Z" fill="black"/>
<path d="M79.1896 150.324H77.8893V156.009H79.1896V150.324Z" fill="#263238"/>
<path d="M87.9987 147.955C79.9347 148.963 67.7379 151.665 58.1719 156.694V158.6C67.4332 153.621 77.5932 150.537 88.0591 149.528L87.9987 147.955Z" fill="#0FC94B"/>
<path d="M101.999 150.788C101.482 150.341 100.901 149.974 100.275 149.699C98.8942 149.104 90.5379 150.354 87.6752 150.808V149.588L87.6046 148.006C89.5501 147.804 91.2939 147.663 92.7656 147.572C95.1747 147.441 96.9589 147.36 98.2793 147.32C98.7525 147.299 99.2251 147.372 99.6697 147.535C100.114 147.698 100.522 147.949 100.868 148.272C101.214 148.595 101.493 148.984 101.687 149.416C101.881 149.848 101.987 150.314 101.999 150.788Z" fill="#0FC94B"/>
<path d="M58.1722 170.101C57.9048 170.101 57.6485 169.995 57.4594 169.806C57.2704 169.617 57.1642 169.36 57.1642 169.093C57.1642 168.579 57.1642 167.51 62.5267 162.662C63.2813 161.966 64.0829 161.323 64.9258 160.737C69.8579 157.588 75.3917 155.501 81.1747 154.608C81.4421 154.573 81.7123 154.646 81.9259 154.811C82.1395 154.975 82.279 155.218 82.3138 155.485C82.3485 155.752 82.2757 156.023 82.1112 156.236C81.9467 156.45 81.7042 156.589 81.4368 156.624C81.3562 156.624 72.7781 157.834 66.0648 162.42C65.2947 162.955 64.5637 163.545 63.8775 164.184C60.3898 167.339 59.281 168.821 59.1701 169.224C59.1383 169.466 59.0196 169.689 58.8361 169.85C58.6525 170.012 58.4166 170.101 58.1722 170.101Z" fill="#263238"/>
<path d="M56.8311 156.423H58.8471C58.9112 156.423 58.9727 156.448 59.0181 156.494C59.0635 156.539 59.089 156.601 59.089 156.665V311.362H56.569V156.645C56.5715 156.613 56.5803 156.582 56.5949 156.553C56.6095 156.525 56.6295 156.5 56.6539 156.479C56.6782 156.459 56.7064 156.443 56.7368 156.433C56.7672 156.424 56.7993 156.42 56.8311 156.423Z" fill="#263238"/>
<path d="M102.009 150.898V150.979L90.306 152.077L87.7054 150.979V150.807C90.5681 150.354 98.9244 149.104 100.305 149.698C100.92 149.976 101.491 150.343 101.999 150.787C102.008 150.823 102.011 150.861 102.009 150.898Z" fill="#0FC94B"/>
<path opacity="0.6" d="M102.009 150.898V150.979L90.306 152.077L87.7054 150.979V150.807C90.5681 150.354 98.9244 149.104 100.305 149.698C100.92 149.976 101.491 150.343 101.999 150.787C102.008 150.823 102.011 150.861 102.009 150.898Z" fill="white"/>
<path d="M400.596 222.729H403.207C403.289 222.729 403.369 222.761 403.427 222.82C403.486 222.879 403.519 222.958 403.519 223.041V319.194H400.283V223.041C400.283 222.958 400.316 222.879 400.375 222.82C400.433 222.761 400.513 222.729 400.596 222.729Z" fill="#263238"/>
<path d="M417.288 225.34H386.392C384.422 225.34 382.824 226.937 382.824 228.908V234.664C382.824 236.635 384.422 238.232 386.392 238.232H417.288C419.258 238.232 420.856 236.635 420.856 234.664V228.908C420.856 226.937 419.258 225.34 417.288 225.34Z" fill="#0FC94B"/>
<path opacity="0.9" d="M417.288 225.34H386.392C384.422 225.34 382.824 226.937 382.824 228.908V234.664C382.824 236.635 384.422 238.232 386.392 238.232H417.288C419.258 238.232 420.856 236.635 420.856 234.664V228.908C420.856 226.937 419.258 225.34 417.288 225.34Z" fill="white"/>
<path d="M416.32 226.297H387.542C385.571 226.297 383.974 227.894 383.974 229.865V233.534C383.974 235.505 385.571 237.103 387.542 237.103H416.32C418.291 237.103 419.889 235.505 419.889 233.534V229.865C419.889 227.894 418.291 226.297 416.32 226.297Z" fill="#0FC94B"/>
<path d="M412.046 232.869L412.227 232.476C412.49 232.67 412.808 232.776 413.134 232.778C413.558 232.778 413.739 232.617 413.739 232.416C413.739 231.831 412.106 232.214 412.106 231.196C412.106 230.752 412.459 230.379 413.215 230.379C413.538 230.372 413.856 230.455 414.132 230.621L413.971 231.014C413.741 230.882 413.481 230.809 413.215 230.803C412.792 230.803 412.62 230.964 412.62 231.176C412.62 231.75 414.243 231.377 414.243 232.385C414.243 232.819 413.89 233.202 413.134 233.202C412.745 233.215 412.362 233.098 412.046 232.869Z" fill="white"/>
<path d="M415.271 230.844H414.364V230.41H416.692V230.844H415.775V233.162H415.261L415.271 230.844Z" fill="white"/>
<path d="M462.683 310.354H39.1613V320.998H462.683V310.354Z" fill="#0FC94B"/>
<g opacity="0.7">
<path d="M462.683 310.354H39.1617V320.998H462.683V310.354Z" fill="white"/>
</g>
<path d="M62.0028 310.354H60.9948V321.754H62.0028V310.354Z" fill="white"/>
<path d="M156.735 310.354H155.727V321.754H156.735V310.354Z" fill="white"/>
<path d="M251.467 310.354H250.459V321.754H251.467V310.354Z" fill="white"/>
<path d="M346.199 310.354H345.191V321.754H346.199V310.354Z" fill="white"/>
<path d="M440.931 310.354H439.923V321.754H440.931V310.354Z" fill="white"/>
<path d="M462.682 325.172H39.1612V330.111H462.682V325.172Z" fill="#0FC94B"/>
<path opacity="0.9" d="M462.682 325.172H39.1612V330.111H462.682V325.172Z" fill="white"/>
<path d="M203.699 362.648H203.417C201.401 364.332 198.054 365.42 194.959 365.904C191.401 366.469 187.903 366.449 184.365 366.983C182.238 367.276 180.162 367.863 178.196 368.727C177.739 369.085 177.311 369.48 176.916 369.906C176.201 370.682 176.08 371.509 177.672 371.972C182.437 373.409 187.537 373.279 192.222 371.6C196.908 369.922 200.93 366.784 203.699 362.648Z" fill="#263238"/>
<path d="M179.267 371.237L173.914 373.052C172.473 373.263 172.352 372.417 173.35 372.044C175.245 371.973 178.904 370.673 179.267 371.237Z" fill="#263238"/>
<g opacity="0.8">
<path d="M203.7 362.648H203.418C201.402 364.332 198.055 365.42 194.961 365.904C191.403 366.469 187.905 366.449 184.367 366.983C182.24 367.276 180.164 367.863 178.198 368.727C177.741 369.085 177.313 369.48 176.918 369.906C176.202 370.682 176.081 371.509 177.674 371.972C182.438 373.409 187.539 373.279 192.224 371.6C196.909 369.922 200.932 366.784 203.7 362.648Z" fill="white"/>
<path d="M179.265 371.237L173.912 373.052C172.471 373.263 172.35 372.417 173.348 372.044C175.243 371.973 178.902 370.673 179.265 371.237Z" fill="white"/>
</g>
<path d="M201.724 358.557C201.724 358.779 201.603 359.021 201.512 359.293C201.422 359.565 201.422 359.575 201.371 359.716C201.27 360.019 201.149 360.331 201.018 360.674L200.787 361.208C200.696 361.43 200.605 361.642 200.494 361.863C200.383 362.085 200.283 362.317 200.162 362.549C200.041 362.781 199.93 363.012 199.799 363.254C199.668 363.496 199.557 363.698 199.426 363.92C199.295 364.141 199.123 364.444 198.952 364.706L198.478 365.442C198.307 365.694 198.135 365.936 197.954 366.178C197.773 366.42 197.591 366.661 197.4 366.903C197.208 367.145 197.007 367.397 196.795 367.629C196.583 367.861 196.392 368.083 196.18 368.304C195.968 368.526 195.736 368.758 195.505 368.97C195.289 368.806 195.052 368.673 194.799 368.577C194.235 368.287 193.58 368.231 192.975 368.419C192.37 368.608 191.863 369.026 191.563 369.585C191.447 369.91 191.417 370.26 191.475 370.601C191.534 370.942 191.678 371.262 191.896 371.53C191.455 371.757 191.001 371.955 190.535 372.125L190.142 372.256L189.699 372.397C189.484 372.469 189.265 372.527 189.043 372.568C188.884 372.612 188.723 372.645 188.559 372.669C188.32 372.728 188.078 372.771 187.834 372.8L187.007 372.881C186.718 372.881 186.416 372.881 186.1 372.881C184.949 372.876 183.802 372.737 182.683 372.468C182.059 372.318 181.443 372.136 180.838 371.923C179.707 371.517 178.608 371.025 177.552 370.452C177.099 370.21 176.645 369.948 176.171 369.655C175.838 369.509 175.54 369.292 175.296 369.021C175.053 368.75 174.871 368.43 174.761 368.083C174.651 367.736 174.617 367.369 174.66 367.007C174.703 366.646 174.823 366.298 175.012 365.986C175.328 365.36 175.702 364.766 176.131 364.212C177.999 363.112 180.104 362.476 182.27 362.357C185.898 362.085 189.547 362.76 193.166 362.448C196.311 362.176 199.647 360.936 201.432 358.416L201.724 358.557Z" fill="#0FC94B"/>
<path d="M177.701 368.787L172.429 370.904C170.958 371.015 170.685 369.543 171.663 369.11C173.629 369.311 177.177 367.749 177.701 368.787Z" fill="#0FC94B"/>
<path opacity="0.2" d="M201.724 358.557C201.724 358.779 201.603 359.021 201.512 359.293C201.422 359.565 201.422 359.575 201.371 359.716C201.27 360.019 201.149 360.331 201.018 360.674L200.787 361.208C200.696 361.43 200.605 361.642 200.494 361.863C200.383 362.085 200.283 362.317 200.162 362.549C200.041 362.781 199.93 363.012 199.799 363.254C199.668 363.496 199.557 363.698 199.426 363.92C199.295 364.141 199.123 364.444 198.952 364.706L198.478 365.442C198.307 365.694 198.135 365.936 197.954 366.178C197.773 366.42 197.591 366.661 197.4 366.903C197.208 367.145 197.007 367.397 196.795 367.629C196.583 367.861 196.392 368.083 196.18 368.304C195.968 368.526 195.736 368.758 195.505 368.97C195.289 368.806 195.052 368.673 194.799 368.577C194.235 368.287 193.58 368.231 192.975 368.419C192.37 368.608 191.863 369.026 191.563 369.585C191.447 369.91 191.417 370.26 191.475 370.601C191.534 370.942 191.678 371.262 191.896 371.53C191.455 371.757 191.001 371.955 190.535 372.125L190.142 372.256L189.699 372.397C189.484 372.469 189.265 372.527 189.043 372.568C188.884 372.612 188.723 372.645 188.559 372.669C188.32 372.728 188.078 372.771 187.834 372.8L187.007 372.881C186.718 372.881 186.416 372.881 186.1 372.881C184.949 372.876 183.802 372.737 182.683 372.468C182.058 372.321 181.442 372.139 180.838 371.923C179.703 371.526 178.604 371.034 177.552 370.452C177.099 370.21 176.645 369.948 176.171 369.655C175.838 369.509 175.54 369.292 175.296 369.021C175.053 368.75 174.871 368.43 174.761 368.083C174.651 367.736 174.617 367.369 174.66 367.007C174.703 366.646 174.823 366.298 175.012 365.986C175.328 365.36 175.702 364.766 176.131 364.212C177.999 363.112 180.104 362.476 182.27 362.357C185.898 362.085 189.547 362.76 193.166 362.448C196.311 362.176 199.647 360.936 201.432 358.416L201.724 358.557Z" fill="white"/>
<path d="M302.885 362.87L303.046 362.8C304.877 363.481 306.849 363.693 308.782 363.415C311.06 363.183 313.197 362.598 315.465 362.336C316.822 362.169 318.196 362.19 319.547 362.397C319.896 362.542 320.233 362.714 320.555 362.911C321.12 363.274 321.331 363.768 320.434 364.302C317.744 365.981 314.584 366.748 311.423 366.49C308.262 366.232 305.268 364.963 302.885 362.87Z" fill="#263238"/>
<path d="M319.286 364.142L322.875 364.374C323.792 364.273 323.731 363.728 323.056 363.668C321.877 363.93 319.447 363.718 319.286 364.142Z" fill="#263238"/>
<g opacity="0.8">
<path d="M302.886 362.87L303.047 362.8C304.877 363.481 306.849 363.693 308.782 363.415C311.061 363.183 313.198 362.598 315.466 362.336C316.823 362.169 318.196 362.19 319.548 362.397C319.896 362.542 320.233 362.714 320.556 362.911C321.12 363.274 321.332 363.768 320.435 364.302C317.744 365.981 314.584 366.748 311.423 366.49C308.263 366.232 305.269 364.963 302.886 362.87Z" fill="white"/>
<path d="M319.287 364.14L322.875 364.372C323.793 364.271 323.732 363.726 323.057 363.666C321.877 363.928 319.448 363.716 319.287 364.14Z" fill="white"/>
</g>
<path d="M303.893 358.849L304.064 358.758C304.809 359.436 305.689 359.949 306.646 360.263C307.603 360.577 308.616 360.686 309.618 360.582C311.926 360.461 314.174 359.715 316.483 359.574C317.858 359.459 319.241 359.677 320.515 360.209C320.828 360.52 321.115 360.858 321.371 361.217C321.516 361.398 321.621 361.608 321.679 361.833C321.737 362.057 321.746 362.291 321.707 362.52C321.668 362.748 321.581 362.966 321.452 363.158C321.323 363.351 321.155 363.514 320.958 363.637C311.402 371.509 305.012 361.58 303.893 358.849Z" fill="#0FC94B"/>
<path d="M319.932 363.194L323.44 364.071C324.377 364.01 324.448 363.063 323.762 362.871C322.542 363.164 320.174 362.498 319.932 363.194Z" fill="#0FC94B"/>
<path opacity="0.2" d="M303.893 358.849L304.064 358.758C304.809 359.436 305.689 359.949 306.646 360.263C307.603 360.577 308.616 360.686 309.618 360.582C311.926 360.461 314.174 359.715 316.483 359.574C317.858 359.459 319.241 359.677 320.515 360.209C320.828 360.52 321.115 360.858 321.371 361.217C321.516 361.398 321.621 361.608 321.679 361.833C321.737 362.057 321.746 362.291 321.707 362.52C321.668 362.748 321.581 362.966 321.452 363.158C321.323 363.351 321.155 363.514 320.958 363.637C311.402 371.509 305.012 361.58 303.893 358.849Z" fill="white"/>
<path d="M243.325 360.653L243.163 360.582C241.324 361.201 239.357 361.344 237.448 360.996C235.19 360.683 233.093 359.988 230.835 359.695C229.501 359.489 228.145 359.462 226.803 359.615C226.457 359.749 226.12 359.907 225.795 360.088C225.221 360.431 224.989 360.905 225.866 361.479C228.48 363.232 231.588 364.097 234.732 363.948C237.875 363.8 240.888 362.644 243.325 360.653Z" fill="#263238"/>
<path d="M226.963 361.349L223.384 361.46C222.477 361.318 222.558 360.784 223.233 360.754C224.392 361.046 226.822 360.935 226.963 361.349Z" fill="#263238"/>
<g opacity="0.8">
<path d="M243.32 360.653L243.159 360.582C241.319 361.201 239.353 361.344 237.444 360.996C235.186 360.683 233.089 359.988 230.831 359.695C229.497 359.489 228.141 359.462 226.799 359.615C226.453 359.749 226.116 359.907 225.791 360.088C225.217 360.431 224.985 360.905 225.862 361.479C228.476 363.232 231.584 364.097 234.727 363.948C237.871 363.8 240.883 362.644 243.32 360.653Z" fill="white"/>
<path d="M226.961 361.349L223.383 361.46C222.476 361.318 222.557 360.784 223.232 360.754C224.391 361.046 226.82 360.935 226.961 361.349Z" fill="white"/>
</g>
<path d="M242.881 357.821C242.833 357.774 242.779 357.733 242.72 357.7C241.882 358.247 240.938 358.612 239.95 358.77C238.962 358.928 237.951 358.876 236.984 358.618C234.736 358.144 232.65 357.055 230.412 356.602C229.087 356.284 227.705 356.284 226.38 356.602C226.021 356.862 225.684 357.152 225.372 357.468C225.2 357.622 225.062 357.809 224.968 358.02C224.874 358.23 224.825 358.458 224.825 358.688C224.825 358.918 224.874 359.146 224.968 359.356C225.062 359.567 225.2 359.755 225.372 359.908C233.537 369.111 241.399 360.331 242.881 357.821Z" fill="#0FC94B"/>
<path d="M226.471 359.575L222.892 359.888C221.985 359.686 222.086 358.739 222.761 358.668C223.91 359.142 226.34 358.849 226.471 359.575Z" fill="#0FC94B"/>
<path opacity="0.2" d="M242.881 357.821C242.833 357.774 242.779 357.733 242.72 357.7C241.882 358.247 240.938 358.612 239.95 358.77C238.962 358.928 237.951 358.876 236.984 358.618C234.736 358.144 232.65 357.055 230.412 356.602C229.087 356.284 227.705 356.284 226.38 356.602C226.021 356.862 225.684 357.152 225.372 357.468C225.2 357.622 225.062 357.809 224.968 358.02C224.874 358.23 224.825 358.458 224.825 358.688C224.825 358.918 224.874 359.146 224.968 359.356C225.062 359.567 225.2 359.755 225.372 359.908C233.537 369.111 241.399 360.331 242.881 357.821Z" fill="white"/>
<path d="M357.42 370.28H357.551C358.904 369.589 360.407 369.242 361.926 369.272C363.71 369.272 365.424 369.484 367.208 369.463C368.271 369.464 369.329 369.318 370.353 369.03C370.601 368.885 370.837 368.72 371.058 368.536C371.462 368.203 371.583 367.81 370.837 367.468C368.594 366.436 366.08 366.153 363.664 366.659C361.248 367.165 359.059 368.435 357.42 370.28Z" fill="#263238"/>
<path d="M369.998 367.729L372.75 367.205C373.476 367.205 373.476 367.618 372.962 367.729C372.024 367.639 370.16 368.032 369.998 367.729Z" fill="#263238"/>
<g opacity="0.8">
<path d="M357.421 370.28H357.552C358.905 369.589 360.408 369.242 361.927 369.272C363.711 369.272 365.424 369.484 367.209 369.463C368.272 369.464 369.33 369.318 370.354 369.03C370.602 368.885 370.838 368.72 371.059 368.536C371.462 368.203 371.583 367.81 370.837 367.468C368.595 366.436 366.081 366.153 363.665 366.659C361.249 367.165 359.06 368.435 357.421 370.28Z" fill="white"/>
<path d="M370.002 367.729L372.754 367.205C373.48 367.205 373.48 367.618 372.966 367.729C372.028 367.639 370.163 368.032 370.002 367.729Z" fill="white"/>
</g>
<path d="M357.37 369.956L357.511 370.027C358.09 369.498 358.775 369.097 359.521 368.852C360.266 368.607 361.055 368.523 361.835 368.606C363.64 368.706 365.383 369.281 367.178 369.402C368.25 369.489 369.328 369.32 370.323 368.908C370.569 368.661 370.794 368.395 370.998 368.112C371.111 367.971 371.192 367.807 371.237 367.632C371.282 367.457 371.29 367.275 371.26 367.097C371.229 366.919 371.161 366.749 371.061 366.599C370.96 366.449 370.829 366.322 370.675 366.227C363.216 360.088 358.227 367.819 357.37 369.956Z" fill="#0FC94B"/>
<path d="M369.857 366.57L372.588 365.895C373.314 365.895 373.354 366.681 372.84 366.822C371.893 366.59 370.038 367.094 369.857 366.57Z" fill="#0FC94B"/>
<path opacity="0.2" d="M357.37 369.956L357.511 370.027C358.09 369.498 358.775 369.097 359.521 368.852C360.266 368.607 361.055 368.523 361.835 368.606C363.64 368.706 365.383 369.281 367.178 369.402C368.25 369.489 369.328 369.32 370.323 368.908C370.569 368.661 370.794 368.395 370.998 368.112C371.111 367.971 371.192 367.807 371.237 367.632C371.282 367.457 371.29 367.275 371.26 367.097C371.229 366.919 371.161 366.749 371.061 366.599C370.96 366.449 370.829 366.322 370.675 366.227C363.216 360.088 358.227 367.819 357.37 369.956Z" fill="white"/>
<path d="M149.72 365.875H149.529C147.926 364.634 146.037 363.816 144.035 363.496C141.707 363.022 139.408 362.952 137.07 362.488C135.672 362.239 134.315 361.798 133.038 361.178C132.746 360.926 132.473 360.653 132.221 360.361C131.778 359.827 131.717 359.283 132.776 359.021C135.962 358.194 139.329 358.415 142.38 359.649C145.431 360.883 148.005 363.066 149.72 365.875Z" fill="#263238"/>
<path d="M133.814 359.554L130.337 358.223C129.389 358.042 129.329 358.596 129.944 358.858C131.183 358.969 133.542 359.917 133.814 359.554Z" fill="#263238"/>
<g opacity="0.8">
<path d="M149.722 365.875H149.53C147.927 364.634 146.038 363.816 144.036 363.496C141.708 363.022 139.41 362.952 137.071 362.488C135.673 362.239 134.316 361.798 133.039 361.178C132.747 360.926 132.474 360.653 132.223 360.361C131.779 359.827 131.719 359.283 132.777 359.021C135.963 358.194 139.33 358.415 142.381 359.649C145.433 360.883 148.006 363.066 149.722 365.875Z" fill="white"/>
<path d="M133.816 359.554L130.338 358.223C129.391 358.042 129.33 358.596 129.945 358.858C131.185 358.969 133.544 359.917 133.816 359.554Z" fill="white"/>
</g>
<path d="M149.862 365.471L149.66 365.522C149.021 364.694 148.215 364.011 147.295 363.516C146.374 363.021 145.36 362.726 144.318 362.649C141.939 362.346 139.509 362.649 137.121 362.417C135.685 362.283 134.302 361.806 133.089 361.026C132.821 360.65 132.591 360.248 132.403 359.826C132.287 359.616 132.218 359.384 132.199 359.144C132.18 358.905 132.212 358.665 132.293 358.439C132.374 358.213 132.502 358.007 132.669 357.834C132.835 357.662 133.037 357.526 133.26 357.438C144.529 351.148 149.247 362.467 149.862 365.471Z" fill="#0FC94B"/>
<path d="M134.287 358.072L130.86 356.54C129.852 356.429 129.67 357.387 130.305 357.699C131.606 357.629 133.904 358.748 134.287 358.072Z" fill="#0FC94B"/>
<path opacity="0.2" d="M149.862 365.471L149.66 365.522C149.021 364.694 148.215 364.011 147.295 363.516C146.374 363.021 145.36 362.726 144.318 362.649C141.939 362.346 139.509 362.649 137.121 362.417C135.685 362.283 134.302 361.806 133.089 361.026C132.821 360.65 132.591 360.248 132.403 359.826C132.287 359.616 132.218 359.384 132.199 359.144C132.18 358.905 132.212 358.665 132.293 358.439C132.374 358.213 132.502 358.007 132.669 357.834C132.835 357.662 133.037 357.526 133.26 357.438C144.529 351.148 149.247 362.467 149.862 365.471Z" fill="white"/>
<path d="M267.287 342.15H267.005C264.989 343.834 261.643 344.922 258.548 345.406C254.99 345.971 251.492 345.951 247.954 346.485C245.827 346.778 243.751 347.365 241.785 348.229C241.328 348.587 240.9 348.982 240.505 349.408C239.789 350.184 239.668 351.011 241.261 351.474C246.026 352.911 251.126 352.781 255.811 351.102C260.496 349.424 264.519 346.286 267.287 342.15Z" fill="#263238"/>
<path d="M242.855 350.739L237.503 352.554C236.061 352.765 235.94 351.919 236.938 351.546C238.833 351.475 242.492 350.175 242.855 350.739Z" fill="#263238"/>
<g opacity="0.8">
<path d="M267.292 342.15H267.01C264.994 343.834 261.647 344.922 258.553 345.406C254.995 345.971 251.497 345.951 247.959 346.485C245.832 346.778 243.756 347.365 241.79 348.229C241.333 348.587 240.905 348.982 240.51 349.408C239.794 350.184 239.673 351.011 241.266 351.474C246.03 352.911 251.131 352.781 255.816 351.102C260.501 349.424 264.524 346.286 267.292 342.15Z" fill="white"/>
<path d="M242.857 350.739L237.504 352.554C236.063 352.765 235.942 351.919 236.94 351.546C238.835 351.475 242.494 350.175 242.857 350.739Z" fill="white"/>
</g>
<path d="M265.313 338.059C265.313 338.281 265.192 338.523 265.101 338.795C265.01 339.067 265.01 339.077 264.96 339.218C264.859 339.521 264.738 339.833 264.607 340.176L264.375 340.71C264.284 340.932 264.194 341.144 264.083 341.365C263.972 341.587 263.871 341.819 263.75 342.051C263.629 342.283 263.518 342.514 263.387 342.756C263.256 342.998 263.145 343.2 263.014 343.422C262.883 343.643 262.712 343.946 262.541 344.208L262.067 344.944C261.895 345.196 261.724 345.438 261.543 345.68C261.361 345.921 261.18 346.163 260.988 346.405C260.797 346.647 260.595 346.899 260.383 347.131C260.172 347.363 259.98 347.585 259.769 347.806C259.557 348.028 259.325 348.26 259.093 348.472C258.878 348.308 258.64 348.175 258.388 348.079C257.824 347.789 257.169 347.733 256.564 347.921C255.959 348.11 255.452 348.528 255.152 349.087C255.036 349.412 255.006 349.762 255.064 350.103C255.122 350.443 255.267 350.763 255.485 351.032C255.044 351.259 254.589 351.457 254.124 351.627L253.731 351.758L253.287 351.899C253.073 351.971 252.854 352.029 252.632 352.07C252.473 352.113 252.311 352.147 252.148 352.171C251.909 352.229 251.667 352.273 251.422 352.302L250.596 352.383C250.307 352.383 250.004 352.383 249.689 352.383C248.537 352.377 247.391 352.239 246.271 351.969C245.648 351.82 245.032 351.638 244.427 351.425C243.295 351.019 242.197 350.527 241.141 349.953C240.687 349.712 240.234 349.449 239.76 349.157C239.426 349.01 239.128 348.794 238.885 348.523C238.642 348.252 238.459 347.932 238.35 347.585C238.24 347.238 238.206 346.871 238.249 346.509C238.292 346.148 238.412 345.8 238.601 345.488C238.916 344.862 239.291 344.268 239.719 343.714C241.588 342.614 243.693 341.978 245.858 341.859C249.487 341.587 253.136 342.262 256.755 341.95C259.9 341.678 263.236 340.438 265.02 337.918L265.313 338.059Z" fill="#0FC94B"/>
<path d="M241.29 348.289L236.018 350.406C234.546 350.517 234.274 349.045 235.252 348.612C237.217 348.813 240.766 347.251 241.29 348.289Z" fill="#0FC94B"/>
<path opacity="0.2" d="M265.313 338.059C265.313 338.281 265.192 338.523 265.101 338.795C265.01 339.067 265.01 339.077 264.96 339.218C264.859 339.521 264.738 339.833 264.607 340.176L264.375 340.71C264.284 340.932 264.194 341.144 264.083 341.365C263.972 341.587 263.871 341.819 263.75 342.051C263.629 342.283 263.518 342.514 263.387 342.756C263.256 342.998 263.145 343.2 263.014 343.422C262.883 343.643 262.712 343.946 262.541 344.208L262.067 344.944C261.895 345.196 261.724 345.438 261.543 345.68C261.361 345.921 261.18 346.163 260.988 346.405C260.797 346.647 260.595 346.899 260.383 347.131C260.172 347.363 259.98 347.585 259.769 347.806C259.557 348.028 259.325 348.26 259.093 348.472C258.878 348.308 258.64 348.175 258.388 348.079C257.824 347.789 257.169 347.733 256.564 347.921C255.959 348.11 255.452 348.528 255.152 349.087C255.036 349.412 255.006 349.762 255.064 350.103C255.122 350.443 255.267 350.763 255.485 351.032C255.044 351.259 254.589 351.457 254.124 351.627L253.731 351.758L253.287 351.899C253.073 351.971 252.854 352.029 252.632 352.07C252.473 352.113 252.311 352.147 252.148 352.171C251.909 352.229 251.667 352.273 251.422 352.302L250.596 352.383C250.307 352.383 250.004 352.383 249.689 352.383C248.537 352.377 247.391 352.239 246.271 351.969C245.647 351.823 245.031 351.641 244.427 351.425C243.292 351.028 242.193 350.536 241.141 349.953C240.687 349.712 240.234 349.449 239.76 349.157C239.426 349.01 239.128 348.794 238.885 348.523C238.642 348.252 238.459 347.932 238.35 347.585C238.24 347.238 238.206 346.871 238.249 346.509C238.292 346.148 238.412 345.8 238.601 345.488C238.916 344.862 239.291 344.268 239.719 343.714C241.588 342.614 243.693 341.978 245.858 341.859C249.487 341.587 253.136 342.262 256.755 341.95C259.9 341.678 263.236 340.438 265.02 337.918L265.313 338.059Z" fill="white"/>
<path d="M366.474 342.372L366.635 342.302C368.465 342.983 370.437 343.195 372.37 342.917C374.648 342.685 376.785 342.1 379.053 341.838C380.411 341.671 381.784 341.692 383.136 341.899C383.484 342.044 383.821 342.216 384.144 342.413C384.708 342.776 384.92 343.27 384.023 343.804C381.332 345.483 378.172 346.25 375.011 345.992C371.85 345.734 368.857 344.465 366.474 342.372Z" fill="#263238"/>
<path d="M382.875 343.644L386.463 343.876C387.381 343.775 387.32 343.23 386.645 343.17C385.465 343.432 383.036 343.22 382.875 343.644Z" fill="#263238"/>
<g opacity="0.8">
<path d="M366.474 342.372L366.635 342.302C368.465 342.983 370.437 343.195 372.37 342.917C374.648 342.685 376.785 342.1 379.053 341.838C380.411 341.671 381.784 341.692 383.136 341.899C383.484 342.044 383.821 342.216 384.144 342.413C384.708 342.776 384.92 343.27 384.023 343.804C381.332 345.483 378.172 346.25 375.011 345.992C371.85 345.734 368.857 344.465 366.474 342.372Z" fill="white"/>
<path d="M382.875 343.642L386.463 343.874C387.381 343.773 387.32 343.228 386.645 343.168C385.466 343.43 383.036 343.218 382.875 343.642Z" fill="white"/>
</g>
<path d="M367.481 338.35L367.653 338.26C368.398 338.938 369.278 339.451 370.235 339.765C371.192 340.079 372.205 340.188 373.207 340.084C375.515 339.963 377.763 339.217 380.071 339.076C381.447 338.961 382.83 339.179 384.103 339.711C384.417 340.022 384.704 340.359 384.96 340.719C385.105 340.9 385.209 341.11 385.267 341.334C385.325 341.559 385.335 341.793 385.296 342.022C385.257 342.25 385.17 342.468 385.041 342.66C384.912 342.853 384.743 343.016 384.547 343.138C374.991 351.011 368.6 341.082 367.481 338.35Z" fill="#0FC94B"/>
<path d="M383.52 342.696L387.028 343.573C387.966 343.512 388.036 342.565 387.351 342.373C386.131 342.666 383.762 342 383.52 342.696Z" fill="#0FC94B"/>
<path opacity="0.2" d="M367.481 338.35L367.653 338.26C368.398 338.938 369.278 339.451 370.235 339.765C371.192 340.079 372.205 340.188 373.207 340.084C375.515 339.963 377.763 339.217 380.071 339.076C381.447 338.961 382.83 339.179 384.103 339.711C384.417 340.022 384.704 340.359 384.96 340.719C385.105 340.9 385.209 341.11 385.267 341.334C385.325 341.559 385.335 341.793 385.296 342.022C385.257 342.25 385.17 342.468 385.041 342.66C384.912 342.853 384.743 343.016 384.547 343.138C374.991 351.011 368.6 341.082 367.481 338.35Z" fill="white"/>
<path d="M306.913 340.155L306.752 340.084C304.912 340.703 302.946 340.846 301.037 340.498C298.779 340.185 296.682 339.49 294.424 339.197C293.09 338.991 291.734 338.964 290.392 339.117C290.046 339.251 289.709 339.409 289.384 339.59C288.81 339.933 288.578 340.407 289.455 340.981C292.069 342.734 295.177 343.599 298.32 343.45C301.464 343.302 304.476 342.146 306.913 340.155Z" fill="#263238"/>
<path d="M290.551 340.851L286.973 340.961C286.066 340.82 286.146 340.286 286.822 340.256C287.981 340.548 290.41 340.437 290.551 340.851Z" fill="#263238"/>
<g opacity="0.8">
<path d="M306.908 340.155L306.747 340.084C304.907 340.703 302.941 340.846 301.032 340.498C298.774 340.185 296.677 339.49 294.419 339.197C293.085 338.991 291.729 338.964 290.387 339.117C290.041 339.251 289.704 339.409 289.379 339.59C288.805 339.933 288.573 340.407 289.45 340.981C292.064 342.734 295.172 343.599 298.315 343.45C301.459 343.302 304.471 342.146 306.908 340.155Z" fill="white"/>
<path d="M290.55 340.851L286.971 340.961C286.064 340.82 286.145 340.286 286.82 340.256C287.979 340.548 290.408 340.437 290.55 340.851Z" fill="white"/>
</g>
<path d="M306.47 337.323C306.422 337.276 306.367 337.235 306.308 337.202C305.47 337.749 304.527 338.114 303.538 338.272C302.55 338.43 301.54 338.378 300.573 338.119C298.325 337.646 296.239 336.557 294.001 336.103C292.676 335.786 291.294 335.786 289.969 336.103C289.61 336.364 289.272 336.654 288.961 336.97C288.789 337.124 288.651 337.311 288.557 337.522C288.462 337.732 288.414 337.96 288.414 338.19C288.414 338.42 288.462 338.648 288.557 338.858C288.651 339.069 288.789 339.257 288.961 339.41C297.126 348.613 304.988 339.833 306.47 337.323Z" fill="#0FC94B"/>
<path d="M290.059 339.077L286.481 339.39C285.574 339.188 285.674 338.24 286.35 338.17C287.499 338.644 289.928 338.351 290.059 339.077Z" fill="#0FC94B"/>
<path opacity="0.2" d="M306.47 337.323C306.422 337.276 306.367 337.235 306.308 337.202C305.47 337.749 304.527 338.114 303.538 338.272C302.55 338.43 301.54 338.378 300.573 338.119C298.325 337.646 296.239 336.557 294.001 336.103C292.676 335.786 291.294 335.786 289.969 336.103C289.61 336.364 289.272 336.654 288.961 336.97C288.789 337.124 288.651 337.311 288.557 337.522C288.462 337.732 288.414 337.96 288.414 338.19C288.414 338.42 288.462 338.648 288.557 338.858C288.651 339.069 288.789 339.257 288.961 339.41C297.126 348.613 304.988 339.833 306.47 337.323Z" fill="white"/>
<path d="M421.009 349.782H421.14C422.493 349.091 423.996 348.744 425.515 348.774C427.299 348.774 429.012 348.986 430.796 348.965C431.86 348.966 432.918 348.82 433.941 348.532C434.19 348.387 434.426 348.222 434.647 348.038C435.05 347.705 435.171 347.312 434.425 346.97C432.183 345.938 429.668 345.655 427.253 346.161C424.837 346.667 422.648 347.937 421.009 349.782Z" fill="#263238"/>
<path d="M433.587 347.231L436.339 346.707C437.064 346.707 437.064 347.12 436.55 347.231C435.613 347.14 433.748 347.534 433.587 347.231Z" fill="#263238"/>
<g opacity="0.8">
<path d="M421.009 349.782H421.14C422.493 349.091 423.996 348.744 425.515 348.774C427.299 348.774 429.012 348.986 430.796 348.965C431.86 348.966 432.918 348.82 433.941 348.532C434.19 348.387 434.426 348.222 434.647 348.038C435.05 347.705 435.171 347.312 434.425 346.97C432.183 345.938 429.668 345.655 427.253 346.161C424.837 346.667 422.648 347.937 421.009 349.782Z" fill="white"/>
<path d="M433.59 347.231L436.342 346.707C437.068 346.707 437.068 347.12 436.554 347.231C435.616 347.14 433.751 347.534 433.59 347.231Z" fill="white"/>
</g>
<path d="M420.958 349.458L421.1 349.529C421.679 348.999 422.364 348.599 423.109 348.354C423.855 348.109 424.644 348.025 425.424 348.108C427.228 348.208 428.972 348.783 430.766 348.904C431.839 348.991 432.917 348.822 433.911 348.41C434.157 348.163 434.383 347.897 434.587 347.614C434.699 347.473 434.781 347.309 434.826 347.134C434.871 346.959 434.879 346.777 434.848 346.599C434.818 346.421 434.75 346.251 434.649 346.101C434.548 345.951 434.417 345.824 434.264 345.729C426.805 339.59 421.815 347.321 420.958 349.458Z" fill="#0FC94B"/>
<path d="M433.445 346.072L436.177 345.396C436.902 345.396 436.943 346.183 436.429 346.324C435.481 346.092 433.627 346.596 433.445 346.072Z" fill="#0FC94B"/>
<path opacity="0.2" d="M420.958 349.458L421.1 349.529C421.679 348.999 422.364 348.599 423.109 348.354C423.855 348.109 424.644 348.025 425.424 348.108C427.228 348.208 428.972 348.783 430.766 348.904C431.839 348.991 432.917 348.822 433.911 348.41C434.157 348.163 434.383 347.897 434.587 347.614C434.699 347.473 434.781 347.309 434.826 347.134C434.871 346.959 434.879 346.777 434.848 346.599C434.818 346.421 434.75 346.251 434.649 346.101C434.548 345.951 434.417 345.824 434.264 345.729C426.805 339.59 421.815 347.321 420.958 349.458Z" fill="white"/>
<path d="M213.309 345.377H213.117C211.514 344.136 209.625 343.318 207.624 342.998C205.295 342.524 202.997 342.454 200.658 341.99C199.26 341.741 197.904 341.3 196.626 340.68C196.334 340.428 196.061 340.155 195.81 339.863C195.366 339.329 195.306 338.785 196.364 338.523C199.55 337.696 202.918 337.917 205.969 339.151C209.02 340.385 211.593 342.568 213.309 345.377Z" fill="#263238"/>
<path d="M197.403 339.056L193.925 337.725C192.978 337.544 192.917 338.098 193.532 338.36C194.772 338.471 197.131 339.419 197.403 339.056Z" fill="#263238"/>
<g opacity="0.8">
<path d="M213.31 345.377H213.118C211.515 344.136 209.626 343.318 207.624 342.998C205.296 342.524 202.998 342.454 200.659 341.99C199.261 341.741 197.904 341.3 196.627 340.68C196.335 340.428 196.062 340.155 195.811 339.863C195.367 339.329 195.307 338.785 196.365 338.523C199.551 337.696 202.918 337.917 205.969 339.151C209.021 340.385 211.594 342.568 213.31 345.377Z" fill="white"/>
<path d="M197.404 339.056L193.926 337.725C192.979 337.544 192.918 338.098 193.533 338.36C194.773 338.471 197.132 339.419 197.404 339.056Z" fill="white"/>
</g>
<path d="M213.45 344.973L213.249 345.024C212.61 344.196 211.804 343.513 210.884 343.018C209.963 342.523 208.949 342.227 207.906 342.151C205.527 341.848 203.098 342.151 200.709 341.919C199.273 341.785 197.89 341.308 196.677 340.528C196.41 340.152 196.18 339.75 195.992 339.328C195.876 339.118 195.806 338.886 195.787 338.646C195.768 338.407 195.801 338.167 195.882 337.941C195.963 337.715 196.091 337.509 196.257 337.336C196.424 337.164 196.626 337.028 196.848 336.939C208.118 330.65 212.835 341.969 213.45 344.973Z" fill="#0FC94B"/>
<path d="M197.876 337.574L194.448 336.042C193.44 335.931 193.259 336.889 193.894 337.201C195.194 337.131 197.493 338.25 197.876 337.574Z" fill="#0FC94B"/>
<path opacity="0.2" d="M213.45 344.973L213.249 345.024C212.61 344.196 211.804 343.513 210.884 343.018C209.963 342.523 208.949 342.227 207.906 342.151C205.527 341.848 203.098 342.151 200.709 341.919C199.273 341.785 197.89 341.308 196.677 340.528C196.41 340.152 196.18 339.75 195.992 339.328C195.876 339.118 195.806 338.886 195.787 338.646C195.768 338.407 195.801 338.167 195.882 337.941C195.963 337.715 196.091 337.509 196.257 337.336C196.424 337.164 196.626 337.028 196.848 336.939C208.118 330.65 212.835 341.969 213.45 344.973Z" fill="white"/>
</svg>
