<svg width="396" height="364" viewBox="0 0 396 364" fill="none" xmlns="http://www.w3.org/2000/svg">
<path d="M174.271 196.751L107.36 197.907L193.038 130.857L174.271 196.751Z" fill="#A9FFC9"/>
<path opacity="0.6" d="M174.271 196.751L107.36 197.907L193.038 130.857L174.271 196.751Z" fill="#FAFAFA"/>
<path d="M99.1218 198.244C153.865 198.244 198.244 153.865 198.244 99.1218C198.244 44.3783 153.865 0 99.1218 0C44.3783 0 0 44.3783 0 99.1218C0 153.865 44.3783 198.244 99.1218 198.244Z" fill="#A9FFC9"/>
<path opacity="0.7" d="M99.1218 198.244C153.865 198.244 198.244 153.865 198.244 99.1218C198.244 44.3783 153.865 0 99.1218 0C44.3783 0 0 44.3783 0 99.1218C0 153.865 44.3783 198.244 99.1218 198.244Z" fill="#FAFAFA"/>
<path d="M70.5562 132.925L61.1231 132.036L59.9674 144.244L53.0531 143.592L54.1989 131.394L26.67 128.796L27.1342 123.857L55.5916 93.75L63.2566 94.4711L35.9648 123.541L55.0582 125.339L56.046 114.552L62.7134 115.184L61.7256 125.971L71.1587 126.85L70.5562 132.925Z" fill="#0FC94B"/>
<path d="M75.9992 120.694C77.5302 104.525 87.0522 96.1091 98.7177 97.2055C110.383 98.3019 118.038 108.338 116.557 124.507C115.075 140.677 105.513 149.093 93.9468 148.006C82.3801 146.919 74.478 136.874 75.9992 120.694ZM109.415 123.845C110.61 111.143 105.82 104.248 98.0954 103.517C90.3711 102.786 84.2668 108.663 83.1012 121.366C81.9356 134.069 86.6966 140.953 94.5 141.694C102.303 142.435 108.22 136.499 109.415 123.845Z" fill="#0FC94B"/>
<path d="M165.352 141.845L155.909 140.956L154.763 153.164L147.849 152.512L149.005 140.313L121.407 137.716L121.871 132.777L150.328 102.67L157.993 103.391L130.701 132.461L149.785 134.259L150.773 123.472L157.44 124.104L156.452 134.891L165.895 135.78L165.352 141.845Z" fill="#0FC94B"/>
<path d="M61.4884 73.9947L61.0735 78.4396L42.5333 76.6912L44.7854 52.7578L62.8811 54.4568L62.4564 58.9017L49.8723 57.7164L49.3883 62.9219L60.5006 63.9689L60.0956 68.2755L48.9833 67.2285L48.4598 72.7698L61.4884 73.9947Z" fill="#0FC94B"/>
<path d="M80.7302 80.2865L76.7791 73.1845H76.5124L71.6823 72.7301L71.06 79.3975L65.5186 78.874L67.7707 54.9307L78.1324 55.9184C84.533 56.521 88.2174 60.2152 87.7136 65.5886C87.6257 67.2099 87.0356 68.7636 86.0249 70.0344C85.0143 71.3052 83.6334 72.23 82.0735 72.6807L86.7259 80.8791L80.7302 80.2865ZM77.3619 60.3732L72.8478 59.9485L72.107 68.3445L76.6211 68.7692C80.0091 69.0853 81.8661 67.6728 82.113 65.075C82.36 62.4772 80.7499 60.6893 77.3619 60.3732Z" fill="#0FC94B"/>
<path d="M105.868 82.6578L101.917 75.5558H101.641L96.8205 75.1014L96.1884 81.7688L90.6569 81.2453L92.8497 57.2822L103.211 58.27C109.602 58.8725 113.286 62.5569 112.783 67.9303C112.7 69.5516 112.113 71.1065 111.103 72.3779C110.094 73.6494 108.713 74.5739 107.153 75.0224L111.795 83.2208L105.868 82.6578ZM102.49 62.7445L97.9762 62.3198L97.1959 70.6565L101.71 71.0812C105.098 71.4072 106.955 69.9947 107.202 67.3969C107.449 64.7991 105.878 63.0606 102.49 62.7445Z" fill="#0FC94B"/>
<path d="M115.371 71.4763C116.042 64.3644 122.078 59.6232 129.634 60.3245C137.19 61.0258 142.238 66.7943 141.566 73.9358C140.895 81.0773 134.82 85.7889 127.303 85.0876C119.786 84.3863 114.699 78.5882 115.371 71.4763ZM135.956 73.4518C136.07 71.9729 135.745 70.4932 135.021 69.1986C134.297 67.9039 133.206 66.8521 131.886 66.1752C130.566 65.4982 129.076 65.2264 127.602 65.3937C126.128 65.5611 124.737 66.1602 123.602 67.1158C122.468 68.0715 121.641 69.341 121.226 70.765C120.81 72.189 120.825 73.704 121.268 75.1196C121.711 76.5353 122.562 77.7886 123.715 78.722C124.868 79.6554 126.271 80.2274 127.747 80.3661C128.75 80.4883 129.767 80.4018 130.735 80.1121C131.703 79.8225 132.6 79.3359 133.371 78.6829C134.142 78.0299 134.769 77.2247 135.214 76.3177C135.659 75.4107 135.911 74.4215 135.956 73.4123V73.4518Z" fill="#0FC94B"/>
<path d="M159.859 87.7336L155.908 80.6316H155.642L150.812 80.1871L150.189 86.8545L144.648 86.331L146.9 62.3877L157.262 63.3755C163.652 63.978 167.347 67.6722 166.843 73.0358C166.757 74.6587 166.168 76.2147 165.157 77.4874C164.146 78.7602 162.764 79.6865 161.203 80.1378L165.855 88.3362L159.859 87.7336ZM156.491 67.8204L151.977 67.3956L151.187 75.7422L155.701 76.167C159.089 76.483 160.946 75.0705 161.193 72.4727C161.44 69.8749 159.879 68.1365 156.491 67.8204Z" fill="#0FC94B"/>
<path d="M342.791 118H384.998C386.146 117.999 387.282 118.224 388.343 118.662C389.403 119.1 390.367 119.743 391.179 120.554C391.991 121.365 392.635 122.328 393.074 123.388C393.514 124.448 393.74 125.584 393.74 126.732V141.548C393.74 142.696 393.514 143.832 393.074 144.892C392.635 145.952 391.991 146.915 391.179 147.726C390.367 148.537 389.403 149.18 388.343 149.618C387.282 150.057 386.146 150.282 384.998 150.28H356.946L344.105 164.01L351.019 150.28H342.742C341.594 150.282 340.458 150.057 339.397 149.618C338.337 149.18 337.373 148.537 336.561 147.726C335.749 146.915 335.105 145.952 334.666 144.892C334.226 143.832 334 142.696 334 141.548V126.732C334 125.58 334.228 124.44 334.67 123.377C335.113 122.313 335.761 121.348 336.578 120.537C337.396 119.725 338.365 119.083 339.431 118.648C340.498 118.212 341.639 117.992 342.791 118Z" fill="#0FC94B"/>
<path d="M344.856 133.291C344.818 132.294 345.08 131.308 345.606 130.461C346.133 129.613 346.901 128.942 347.811 128.534C348.722 128.126 349.734 127.999 350.717 128.17C351.7 128.34 352.61 128.801 353.33 129.492C354.049 130.183 354.546 131.074 354.756 132.05C354.966 133.025 354.88 134.041 354.508 134.967C354.137 135.894 353.497 136.688 352.672 137.248C351.846 137.808 350.872 138.109 349.874 138.112C349.223 138.144 348.572 138.043 347.962 137.815C347.352 137.586 346.794 137.236 346.324 136.784C345.854 136.333 345.482 135.79 345.229 135.19C344.977 134.589 344.85 133.943 344.856 133.291ZM353.518 133.291C353.528 132.564 353.321 131.85 352.924 131.24C352.526 130.631 351.956 130.153 351.286 129.869C350.616 129.584 349.877 129.506 349.162 129.643C348.448 129.781 347.79 130.128 347.274 130.64C346.757 131.153 346.404 131.807 346.261 132.521C346.118 133.234 346.191 133.974 346.469 134.646C346.748 135.319 347.221 135.892 347.827 136.295C348.434 136.697 349.146 136.91 349.874 136.907C350.353 136.92 350.831 136.836 351.277 136.659C351.724 136.483 352.13 136.218 352.47 135.88C352.811 135.541 353.08 135.138 353.26 134.693C353.44 134.248 353.528 133.771 353.518 133.291Z" fill="white"/>
<path d="M356.077 134.436C356.063 133.699 356.269 132.974 356.669 132.355C357.068 131.735 357.644 131.248 358.321 130.956C358.998 130.665 359.747 130.581 360.472 130.716C361.197 130.852 361.865 131.2 362.391 131.717C362.918 132.233 363.278 132.895 363.427 133.617C363.576 134.339 363.507 135.089 363.228 135.772C362.949 136.455 362.473 137.039 361.861 137.45C361.249 137.861 360.528 138.081 359.791 138.081C359.303 138.105 358.815 138.027 358.359 137.853C357.902 137.679 357.486 137.412 357.138 137.07C356.789 136.728 356.515 136.317 356.332 135.864C356.149 135.411 356.063 134.925 356.077 134.436ZM362.191 134.436C362.172 133.964 362.014 133.508 361.737 133.124C361.46 132.741 361.077 132.448 360.634 132.281C360.192 132.113 359.71 132.08 359.249 132.185C358.788 132.29 358.368 132.527 358.041 132.869C357.714 133.211 357.495 133.641 357.411 134.106C357.327 134.572 357.382 135.051 357.568 135.486C357.755 135.92 358.065 136.29 358.46 136.55C358.855 136.809 359.318 136.947 359.791 136.945C360.117 136.953 360.442 136.892 360.744 136.768C361.046 136.643 361.318 136.456 361.544 136.22C361.77 135.984 361.944 135.704 362.056 135.397C362.167 135.089 362.213 134.762 362.191 134.436Z" fill="white"/>
<path d="M372.671 134.435C372.696 134.916 372.621 135.398 372.449 135.849C372.277 136.3 372.013 136.71 371.674 137.053C371.334 137.397 370.927 137.665 370.478 137.842C370.029 138.018 369.548 138.099 369.066 138.079C368.59 138.094 368.117 137.997 367.685 137.796C367.252 137.595 366.873 137.297 366.577 136.924V140.608H365.283V130.839H366.517V131.975C366.815 131.586 367.202 131.274 367.646 131.066C368.089 130.858 368.576 130.76 369.066 130.78C369.549 130.758 370.032 130.838 370.482 131.015C370.933 131.192 371.341 131.461 371.681 131.806C372.021 132.15 372.285 132.562 372.455 133.015C372.626 133.468 372.699 133.951 372.671 134.435ZM371.367 134.435C371.348 133.963 371.19 133.507 370.914 133.123C370.638 132.74 370.255 132.447 369.813 132.279C369.371 132.112 368.89 132.078 368.429 132.182C367.969 132.286 367.548 132.523 367.221 132.864C366.894 133.204 366.674 133.634 366.589 134.098C366.503 134.563 366.557 135.042 366.742 135.477C366.926 135.912 367.235 136.282 367.629 136.543C368.023 136.804 368.485 136.943 368.957 136.943C369.284 136.951 369.609 136.89 369.912 136.766C370.214 136.641 370.487 136.455 370.714 136.219C370.94 135.983 371.115 135.702 371.228 135.395C371.34 135.088 371.388 134.761 371.367 134.435Z" fill="white"/>
<path d="M373.56 137.241L374.094 136.253C374.842 136.734 375.713 136.991 376.602 136.994C377.798 136.994 378.292 136.628 378.292 136.006C378.292 134.396 373.787 135.789 373.787 132.944C373.787 131.67 374.933 130.81 376.751 130.81C377.658 130.794 378.554 131.015 379.348 131.453L378.795 132.44C378.183 132.049 377.467 131.849 376.741 131.867C375.605 131.867 375.052 132.292 375.052 132.855C375.052 134.534 379.576 133.161 379.576 135.937C379.576 137.231 378.39 138.051 376.494 138.051C375.456 138.085 374.433 137.803 373.56 137.241Z" fill="white"/>
<path d="M380.909 137.221C380.908 137.105 380.93 136.99 380.974 136.882C381.019 136.775 381.084 136.677 381.167 136.596C381.251 136.515 381.349 136.451 381.458 136.409C381.566 136.367 381.682 136.348 381.798 136.352C382.011 136.375 382.209 136.476 382.352 136.635C382.495 136.795 382.575 137.002 382.575 137.216C382.575 137.431 382.495 137.638 382.352 137.797C382.209 137.957 382.011 138.058 381.798 138.08C381.683 138.083 381.569 138.063 381.462 138.021C381.354 137.979 381.257 137.916 381.174 137.836C381.091 137.756 381.025 137.661 380.98 137.555C380.934 137.45 380.91 137.336 380.909 137.221ZM381.028 128.578H382.549L382.292 135.028H381.304L381.028 128.578Z" fill="white"/>
<path d="M238.731 238.177C239.126 238.582 237.892 240.399 235.985 242.246C234.079 244.093 232.212 245.209 231.827 244.844C231.442 244.478 232.666 242.621 234.573 240.784C236.479 238.947 238.346 237.781 238.731 238.177Z" fill="white"/>
<path d="M241.22 242.769L263.129 265.487C263.244 265.602 263.335 265.738 263.397 265.888C263.459 266.038 263.492 266.199 263.492 266.361C263.492 266.524 263.459 266.684 263.397 266.834C263.335 266.984 263.244 267.121 263.129 267.235L260.017 270.199C259.902 270.315 259.766 270.408 259.615 270.471C259.464 270.534 259.302 270.566 259.138 270.566C258.975 270.566 258.813 270.534 258.662 270.471C258.511 270.408 258.374 270.315 258.259 270.199L236.351 247.48L241.22 242.769Z" fill="#0FC94B"/>
<path d="M242.228 243.866L239.353 238.473L232.103 245.476L237.388 248.538L242.228 243.866Z" fill="#0FC94B"/>
<path opacity="0.2" d="M242.228 243.866L239.353 238.473L232.103 245.476L237.388 248.538L242.228 243.866Z" fill="black"/>
<path d="M238.823 237.807L231.495 244.879C231.361 245.008 231.358 245.22 231.486 245.354L232.193 246.086C232.322 246.22 232.534 246.223 232.668 246.095L239.996 239.023C240.129 238.894 240.133 238.681 240.004 238.548L239.298 237.816C239.169 237.682 238.956 237.679 238.823 237.807Z" fill="#0FC94B"/>
<path opacity="0.2" d="M262.823 265.162L263.129 265.478C263.244 265.593 263.335 265.729 263.397 265.879C263.46 266.029 263.492 266.19 263.492 266.352C263.492 266.515 263.46 266.676 263.397 266.826C263.335 266.976 263.244 267.112 263.129 267.227L260.018 270.19C259.903 270.306 259.766 270.399 259.615 270.462C259.464 270.525 259.302 270.558 259.138 270.558C258.975 270.558 258.813 270.525 258.662 270.462C258.511 270.399 258.374 270.306 258.259 270.19L257.953 269.874L262.823 265.162Z" fill="black"/>
<path opacity="0.2" d="M246.06 252.687C245.998 252.757 245.922 252.812 245.837 252.851C245.752 252.889 245.66 252.908 245.567 252.908C245.473 252.908 245.381 252.889 245.296 252.851C245.211 252.812 245.135 252.757 245.073 252.687L241.655 249.141C241.587 249.078 241.532 249.002 241.495 248.917C241.458 248.832 241.439 248.74 241.439 248.647C241.439 248.554 241.458 248.463 241.495 248.378C241.532 248.293 241.587 248.216 241.655 248.153C241.719 248.086 241.795 248.033 241.88 247.997C241.965 247.96 242.057 247.941 242.149 247.941C242.241 247.941 242.333 247.96 242.418 247.997C242.503 248.033 242.579 248.086 242.643 248.153L246.06 251.689C246.13 251.752 246.186 251.829 246.224 251.915C246.263 252.001 246.282 252.094 246.282 252.188C246.282 252.282 246.263 252.375 246.224 252.461C246.186 252.547 246.13 252.624 246.06 252.687Z" fill="black"/>
<path d="M329.595 208.662C336.796 213.69 342.802 220.1 348.244 226.906C353.005 232.902 355.811 240.122 358.013 247.293C359.519 252.299 360.632 257.415 361.342 262.594L355.05 264.135C351.02 254.386 346.911 243.905 340.372 235.747C335.441 230.678 330.21 225.912 324.706 221.473C324.084 220.96 322.73 219.913 322.138 219.409L329.595 208.662Z" fill="#FFC3BD"/>
<path d="M321.871 204.315C332.736 204.166 342.031 218.38 342.031 218.38L331.067 229.957C331.067 229.957 319.392 223.299 312.991 217.64C305.089 210.656 313.584 204.404 321.871 204.315Z" fill="#0FC94B"/>
<path opacity="0.4" d="M334.429 210.637L334.107 211.05L337.371 213.594L337.693 213.182L334.429 210.637Z" fill="white"/>
<path opacity="0.4" d="M328.963 206.38L328.212 205.797C327.645 205.541 327.064 205.313 326.474 205.115L328.637 206.794L328.963 206.38Z" fill="white"/>
<path opacity="0.4" d="M339.927 215.556L339.503 215.032L339.404 215.151L339.927 215.556Z" fill="white"/>
<path opacity="0.4" d="M330.998 207.958L330.677 208.371L333.691 210.721L334.013 210.309L330.998 207.958Z" fill="white"/>
<path opacity="0.4" d="M313.386 208.356L312.319 207.526C312.181 207.637 312.049 207.756 311.924 207.882L313.06 208.771L313.386 208.356Z" fill="white"/>
<path opacity="0.4" d="M324.152 216.715L323.83 217.128L326.846 219.477L327.167 219.064L324.152 216.715Z" fill="white"/>
<path opacity="0.4" d="M315.434 209.923L315.112 210.336L318.088 212.656L318.41 212.243L315.434 209.923Z" fill="white"/>
<path opacity="0.4" d="M327.591 219.404L327.269 219.817L330.534 222.361L330.856 221.949L327.591 219.404Z" fill="white"/>
<path opacity="0.4" d="M318.81 212.531L318.488 212.944L321.791 215.519L322.113 215.106L318.81 212.531Z" fill="white"/>
<path opacity="0.4" d="M332.568 223.933L334.988 225.819L335.354 225.434L332.894 223.508L332.568 223.933Z" fill="white"/>
<path opacity="0.2" d="M328.255 211.435L326.665 213.477L329.68 215.826L331.271 213.785L328.255 211.435Z" fill="black"/>
<path opacity="0.2" d="M319.531 204.638L317.94 206.68L320.916 208.999L322.507 206.958L319.531 204.638Z" fill="black"/>
<path opacity="0.2" d="M322.915 207.26L321.324 209.301L324.627 211.875L326.218 209.834L322.915 207.26Z" fill="black"/>
<path opacity="0.2" d="M335.403 220.288L338.179 222.451L339.967 220.564L336.994 218.253L335.403 220.288Z" fill="black"/>
<path opacity="0.2" d="M331.696 214.123L330.105 216.164L333.37 218.708L334.961 216.667L331.696 214.123Z" fill="black"/>
<path opacity="0.2" d="M312.722 213.388L311.132 215.43L314.108 217.749L315.699 215.708L312.722 213.388Z" fill="black"/>
<path opacity="0.2" d="M321.457 220.185L319.866 222.227L322.881 224.576L324.472 222.535L321.457 220.185Z" fill="black"/>
<path opacity="0.2" d="M309.929 211.199C309.84 211.722 309.84 212.257 309.929 212.78L310.699 211.792L309.929 211.199Z" fill="black"/>
<path opacity="0.2" d="M328.874 228.674L331.067 229.959L332.312 228.645L330.188 226.985L328.874 228.674Z" fill="black"/>
<path opacity="0.2" d="M324.884 222.855L323.293 224.89L325.457 226.569L326.652 227.32L328.153 225.394L324.884 222.855Z" fill="black"/>
<path opacity="0.2" d="M316.114 216.015L314.523 218.057L317.827 220.631L319.418 218.59L316.114 216.015Z" fill="black"/>
<path opacity="0.2" d="M310.838 215.182C310.907 215.29 310.976 215.399 311.055 215.508L311.134 215.409L310.838 215.182Z" fill="white"/>
<path opacity="0.2" d="M319.639 204.494H319.392L319.53 204.603L319.639 204.494Z" fill="white"/>
<path opacity="0.2" d="M315.421 209.897L317.94 206.677L316.221 205.393L315.48 205.679L313.386 208.356L315.421 209.897Z" fill="white"/>
<path opacity="0.2" d="M313.066 208.744L310.686 211.798L312.728 213.389L315.108 210.335L313.066 208.744Z" fill="white"/>
<path opacity="0.4" d="M313.381 208.318L313.06 208.73L315.101 210.321L315.423 209.908L313.381 208.318Z" fill="white"/>
<path opacity="0.2" d="M313.381 208.318L313.06 208.73L315.101 210.321L315.423 209.908L313.381 208.318Z" fill="white"/>
<path opacity="0.2" d="M319.53 204.642L319.392 204.533C318.311 204.699 317.249 204.971 316.221 205.343L317.94 206.677L319.53 204.642Z" fill="black"/>
<path opacity="0.2" d="M319.53 204.642L319.392 204.533C318.311 204.699 317.249 204.971 316.221 205.343L317.94 206.677L319.53 204.642Z" fill="white"/>
<path opacity="0.2" d="M311.134 215.409L312.715 213.374L310.7 211.784L309.929 212.772C310.069 213.628 310.385 214.445 310.858 215.172L311.134 215.409Z" fill="black"/>
<path opacity="0.2" d="M311.134 215.409L312.715 213.374L310.7 211.784L309.929 212.772C310.069 213.628 310.385 214.445 310.858 215.172L311.134 215.409Z" fill="white"/>
<path opacity="0.2" d="M321.797 215.543L319.416 218.597L321.458 220.187L323.838 217.133L321.797 215.543Z" fill="white"/>
<path opacity="0.2" d="M330.998 207.93L331.344 207.495C330.618 207.016 329.866 206.577 329.092 206.182L328.963 206.34L330.998 207.93Z" fill="white"/>
<path opacity="0.2" d="M328.629 206.732L326.213 209.833L328.254 211.424L330.671 208.323L328.629 206.732Z" fill="white"/>
<path opacity="0.2" d="M324.637 211.88L322.123 215.105L324.164 216.696L326.678 213.471L324.637 211.88Z" fill="white"/>
<path opacity="0.2" d="M317.831 220.624L317.416 221.157C318.107 221.661 318.809 222.145 319.52 222.659L319.866 222.214L317.831 220.624Z" fill="white"/>
<path opacity="0.4" d="M328.963 206.35L328.641 206.763L330.682 208.353L331.004 207.941L328.963 206.35Z" fill="white"/>
<path opacity="0.2" d="M328.963 206.35L328.641 206.763L330.682 208.353L331.004 207.941L328.963 206.35Z" fill="white"/>
<path opacity="0.4" d="M322.113 215.122L321.791 215.535L323.833 217.126L324.154 216.713L322.113 215.122Z" fill="white"/>
<path opacity="0.2" d="M322.113 215.122L321.791 215.535L323.833 217.126L324.154 216.713L322.113 215.122Z" fill="white"/>
<path opacity="0.2" d="M326.224 209.867L324.633 211.908L326.675 213.499L328.266 211.458L326.224 209.867Z" fill="black"/>
<path opacity="0.2" d="M326.224 209.867L324.633 211.908L326.675 213.499L328.266 211.458L326.224 209.867Z" fill="white"/>
<path opacity="0.2" d="M319.416 218.598L317.825 220.64L319.866 222.23L321.457 220.189L319.416 218.598Z" fill="black"/>
<path opacity="0.2" d="M319.416 218.598L317.825 220.64L319.866 222.23L321.457 220.189L319.416 218.598Z" fill="white"/>
<path opacity="0.2" d="M338.219 213.56L337.764 213.057L337.695 213.146L338.219 213.56Z" fill="white"/>
<path opacity="0.2" d="M337.38 213.589L334.963 216.689L337.004 218.28L339.421 215.179L337.38 213.589Z" fill="white"/>
<path opacity="0.2" d="M330.527 222.32L328.147 225.374L330.188 226.965L332.568 223.911L330.527 222.32Z" fill="white"/>
<path opacity="0.2" d="M333.367 218.699L330.854 221.925L332.895 223.516L335.409 220.29L333.367 218.699Z" fill="white"/>
<path opacity="0.4" d="M337.369 213.561L339.404 215.152L339.503 215.033C339.117 214.569 338.683 214.045 338.219 213.561L337.695 213.146L337.369 213.561Z" fill="white"/>
<path opacity="0.2" d="M337.369 213.561L339.404 215.152L339.503 215.033C339.117 214.569 338.683 214.045 338.219 213.561L337.695 213.146L337.369 213.561Z" fill="white"/>
<path opacity="0.4" d="M330.842 221.915L330.52 222.328L332.561 223.919L332.883 223.506L330.842 221.915Z" fill="white"/>
<path opacity="0.2" d="M330.842 221.915L330.52 222.328L332.561 223.919L332.883 223.506L330.842 221.915Z" fill="white"/>
<path opacity="0.2" d="M334.961 216.668L333.37 218.709L335.411 220.3L337.002 218.259L334.961 216.668Z" fill="black"/>
<path opacity="0.2" d="M334.961 216.668L333.37 218.709L335.411 220.3L337.002 218.259L334.961 216.668Z" fill="white"/>
<path opacity="0.2" d="M328.153 225.394L326.652 227.32L328.874 228.673L330.188 226.984L328.153 225.394Z" fill="black"/>
<path opacity="0.2" d="M328.153 225.394L326.652 227.32L328.874 228.673L330.188 226.984L328.153 225.394Z" fill="white"/>
<path opacity="0.3" d="M314.107 217.729L313.663 218.233L314.068 218.569L314.492 218.036L314.107 217.729Z" fill="black"/>
<path opacity="0.3" d="M320.908 208.997L318.394 212.223L318.807 212.544L321.321 209.319L320.908 208.997Z" fill="black"/>
<path opacity="0.3" d="M318.068 212.637L315.688 215.691L316.101 216.013L318.481 212.959L318.068 212.637Z" fill="black"/>
<path opacity="0.3" d="M322.918 207.278L324.963 204.651C324.771 204.604 324.576 204.568 324.38 204.542L322.493 206.952L322.918 207.278Z" fill="black"/>
<path opacity="0.4" d="M318.4 212.236L318.079 212.649L318.492 212.971L318.813 212.558L318.4 212.236Z" fill="white"/>
<path opacity="0.3" d="M318.4 212.236L318.079 212.649L318.492 212.971L318.813 212.558L318.4 212.236Z" fill="black"/>
<path opacity="0.2" d="M322.505 206.974L320.915 209.016L321.328 209.337L322.918 207.296L322.505 206.974Z" fill="black"/>
<path opacity="0.3" d="M322.505 206.974L320.915 209.016L321.328 209.337L322.918 207.296L322.505 206.974Z" fill="black"/>
<path opacity="0.2" d="M315.687 215.695L314.097 217.736L314.51 218.058L316.1 216.017L315.687 215.695Z" fill="black"/>
<path opacity="0.3" d="M315.687 215.695L314.097 217.736L314.51 218.058L316.1 216.017L315.687 215.695Z" fill="black"/>
<path opacity="0.3" d="M326.86 219.489L324.48 222.543L324.892 222.865L327.273 219.811L326.86 219.489Z" fill="black"/>
<path opacity="0.3" d="M334.406 210.608L334.761 210.144L334.366 209.798L333.991 210.282L334.406 210.608Z" fill="black"/>
<path opacity="0.3" d="M322.879 224.565L322.701 224.802L323.135 225.089L323.293 224.891L322.879 224.565Z" fill="black"/>
<path opacity="0.3" d="M333.689 210.689L331.272 213.79L331.685 214.112L334.102 211.011L333.689 210.689Z" fill="black"/>
<path opacity="0.3" d="M329.694 215.847L327.18 219.072L327.593 219.394L330.107 216.169L329.694 215.847Z" fill="black"/>
<path opacity="0.4" d="M334.01 210.286L333.688 210.699L334.101 211.021L334.422 210.608L334.01 210.286Z" fill="white"/>
<path opacity="0.3" d="M334.01 210.286L333.688 210.699L334.101 211.021L334.422 210.608L334.01 210.286Z" fill="black"/>
<path opacity="0.4" d="M327.183 219.094L326.861 219.507L327.273 219.829L327.595 219.416L327.183 219.094Z" fill="white"/>
<path opacity="0.3" d="M327.183 219.094L326.861 219.507L327.273 219.829L327.595 219.416L327.183 219.094Z" fill="black"/>
<path opacity="0.2" d="M331.28 213.8L329.689 215.841L330.102 216.163L331.693 214.121L331.28 213.8Z" fill="black"/>
<path opacity="0.3" d="M331.28 213.8L329.689 215.841L330.102 216.163L331.693 214.121L331.28 213.8Z" fill="black"/>
<path opacity="0.2" d="M324.487 222.562L322.896 224.603L323.309 224.924L324.9 222.883L324.487 222.562Z" fill="black"/>
<path opacity="0.3" d="M324.487 222.562L322.896 224.603L323.309 224.924L324.9 222.883L324.487 222.562Z" fill="black"/>
<path opacity="0.3" d="M342.031 218.383L341.922 218.225L340.777 219.706L342.031 218.383Z" fill="black"/>
<path d="M329.062 229.483L340.52 214.677L343.256 217.788L331.314 231.242L329.062 229.483Z" fill="#0FC94B"/>
<path opacity="0.2" d="M343.256 217.788L338.979 222.608L331.66 230.856L331.314 231.251L329.062 229.483L329.2 229.305L329.437 229.009L336.559 219.803L339.888 215.497L340.52 214.677L343.256 217.788Z" fill="white"/>
<path opacity="0.2" d="M338.979 222.609L331.66 230.857C330.777 230.447 329.95 229.926 329.2 229.306C328.777 228.958 328.384 228.574 328.025 228.161C325.545 225.316 324.37 220.821 326.839 214.688C330.409 215.676 333.724 217.421 336.559 219.804C337.312 220.474 337.99 221.222 338.584 222.036C338.727 222.22 338.858 222.411 338.979 222.609Z" fill="black"/>
<path d="M284.346 186.073C284.287 186.695 283.822 187.14 283.417 187.061C283.013 186.982 282.775 186.438 282.864 185.816C282.953 185.194 283.388 184.749 283.793 184.828C284.198 184.907 284.435 185.48 284.346 186.073Z" fill="#263238"/>
<path d="M284.751 186.714C283.696 188.494 282.403 190.123 280.908 191.554C281.287 191.927 281.741 192.213 282.241 192.394C282.741 192.575 283.273 192.645 283.803 192.601L284.751 186.714Z" fill="#ED847E"/>
<path d="M284.168 182.338C284.12 182.334 284.072 182.34 284.026 182.354C283.98 182.369 283.937 182.393 283.901 182.424C283.864 182.455 283.834 182.493 283.812 182.536C283.79 182.579 283.777 182.626 283.773 182.674C283.784 182.747 283.814 182.815 283.862 182.872C283.885 182.921 283.917 182.965 283.958 183.001C283.999 183.036 284.047 183.063 284.099 183.079C284.562 183.112 285.01 183.254 285.408 183.493C285.806 183.731 286.143 184.06 286.391 184.452C286.439 184.538 286.517 184.602 286.61 184.633C286.703 184.664 286.804 184.66 286.894 184.62C286.937 184.598 286.975 184.568 287.007 184.531C287.038 184.494 287.061 184.452 287.076 184.406C287.091 184.36 287.096 184.312 287.092 184.264C287.088 184.216 287.075 184.169 287.052 184.126C286.752 183.617 286.333 183.188 285.83 182.877C285.328 182.566 284.758 182.381 284.168 182.338Z" fill="#263238"/>
<path d="M283.368 195.397C283.42 195.782 283.492 196.165 283.585 196.542C284.087 198.716 285.241 200.684 286.894 202.183C287.31 202.567 287.756 202.917 288.228 203.23C290.015 204.462 292.156 205.076 294.325 204.978C296.494 204.88 298.571 204.075 300.239 202.686C304.644 199.15 305.059 194.527 306.393 186.774C306.729 184.969 306.599 183.108 306.015 181.368C305.43 179.628 304.411 178.066 303.053 176.83C301.696 175.594 300.045 174.726 298.258 174.307C296.471 173.888 294.606 173.933 292.841 174.436C284.84 176.688 282.469 188.176 283.368 195.397Z" fill="#FFC3BD"/>
<path opacity="0.2" d="M286.894 202.182C287.31 202.566 287.756 202.917 288.228 203.229C289.453 204.074 290.853 204.633 292.323 204.865C293.793 205.098 295.296 204.998 296.723 204.573C296.48 203.595 296.115 202.653 295.636 201.767C292.743 201.065 289.708 201.209 286.894 202.182Z" fill="black"/>
<path d="M307.144 207.851C305.385 212.888 296.278 216.336 296.278 216.336C296.278 216.336 290.184 217.758 290.401 215.506C293.246 213.293 293.957 211.012 293.572 208.809C293.287 207.469 292.736 206.199 291.952 205.075C291.547 204.433 289.69 202.616 289.206 202.023L296.871 189.745C298.283 195.622 301.731 205.974 307.144 207.851Z" fill="#FFC3BD"/>
<path d="M292.762 170.978C294.895 170.336 300.664 169.99 304.052 171.274C314.472 175.383 312.438 181.527 312.438 181.527C311.952 180.216 311.111 179.067 310.008 178.208C317.149 193.252 301.721 202.201 301.721 202.201C297.661 199.702 291.784 200.472 291.784 200.472C291.784 200.472 291.428 193.261 289.808 190.753C288.188 188.244 287.635 183.275 288.662 180.668C289.69 178.06 286.815 178.988 286.815 178.988C285.087 176.855 289.64 171.916 292.762 170.978Z" fill="#263238"/>
<path d="M292.782 189.835C292.551 190.549 292.167 191.204 291.654 191.752C291.142 192.3 290.515 192.728 289.818 193.006C288.149 193.5 287.359 191.139 287.843 188.818C288.297 186.763 289.71 183.958 291.359 184.541C293.009 185.124 293.572 187.791 292.782 189.835Z" fill="#FFC3BD"/>
<path d="M290.885 177.647C290.885 177.647 283.971 194.104 285.482 200.633C285.482 200.633 282.262 195.783 289.384 177.914L290.885 177.647Z" fill="black"/>
<path d="M296.663 177.487C296.663 177.487 300.496 185.982 304.733 188.965C308.971 191.948 311.746 189.815 311.746 189.815L313.129 184.54C313.129 184.54 311.727 188.491 309.692 188.116C307.657 187.74 303.647 185.152 300.476 178.149L296.663 177.487Z" fill="#0FC94B"/>
<path opacity="0.4" d="M296.663 177.487C296.663 177.487 300.496 185.982 304.733 188.965C308.971 191.948 311.746 189.815 311.746 189.815L313.129 184.54C313.129 184.54 311.727 188.491 309.692 188.116C307.657 187.74 303.647 185.152 300.476 178.149L296.663 177.487Z" fill="white"/>
<path d="M284.208 178.456C284.208 178.456 286.499 170.86 290.717 168.578C294.935 166.297 303.963 167.67 308.823 171.058C313.683 174.446 313.86 182.506 313.515 183.997C312.715 187.455 302.758 176.866 294.806 176.718C286.855 176.569 284.208 178.456 284.208 178.456Z" fill="#0FC94B"/>
<path opacity="0.2" d="M284.208 178.456C284.208 178.456 286.499 170.86 290.717 168.578C294.935 166.297 303.963 167.67 308.823 171.058C313.683 174.446 313.86 182.506 313.515 183.997C312.715 187.455 302.758 176.866 294.806 176.718C286.855 176.569 284.208 178.456 284.208 178.456Z" fill="black"/>
<path d="M292.001 168.006C292.001 168.006 293.858 164.519 295.379 164.055C296.9 163.59 306.897 166.169 309.317 168.46C311.737 170.752 314.048 177.627 312.477 184.047L307.588 182.862C307.588 182.862 308.793 175.355 305.435 171.799C301.563 167.68 292.001 168.006 292.001 168.006Z" fill="#0FC94B"/>
<path d="M280.504 181.281C280.504 181.281 283.911 183.641 288.732 180.204C293.552 176.767 300.16 179.009 304.832 182.179C308.145 184.435 311.82 186.106 315.698 187.118L313.554 183.948C313.554 183.948 309.455 183.345 303.676 178.722C297.898 174.1 287.596 175.117 284.218 178.436L280.504 181.281Z" fill="#0FC94B"/>
<path d="M290.845 211.713C290.845 211.713 295.725 204.048 304.16 203.396C312.596 202.744 309.642 211.713 309.642 211.713H290.845Z" fill="#0FC94B"/>
<path opacity="0.2" d="M290.845 211.713C290.845 211.713 295.725 204.048 304.16 203.396C312.596 202.744 309.642 211.713 309.642 211.713H290.845Z" fill="white"/>
<path d="M344.056 252.172C331.65 256.123 308.902 263.433 302.867 265.379C301.464 261.655 302.61 250.414 296.328 238.106C294.405 234.377 292.004 230.913 289.186 227.804C286.211 224.53 282.874 221.604 279.239 219.082C279.239 219.082 297.068 203.416 319.382 204.789C319.382 204.789 338.357 216.376 344.056 252.172Z" fill="#0FC94B"/>
<path opacity="0.4" d="M307.62 209.708L303.643 211.02L303.807 211.517L307.784 210.205L307.62 209.708Z" fill="white"/>
<path opacity="0.4" d="M303.142 211.19L299.558 212.372L299.722 212.869L303.306 211.688L303.142 211.19Z" fill="white"/>
<path opacity="0.4" d="M297.092 213.206L293.058 214.535L293.221 215.032L297.255 213.703L297.092 213.206Z" fill="white"/>
<path opacity="0.4" d="M281.995 218.174L279.239 219.083L279.763 219.468L282.173 218.668L281.995 218.174Z" fill="white"/>
<path opacity="0.4" d="M292.563 214.696L289.036 215.858L289.199 216.356L292.727 215.193L292.563 214.696Z" fill="white"/>
<path opacity="0.4" d="M318.127 206.272L314.197 207.567L314.361 208.065L318.291 206.769L318.127 206.272Z" fill="white"/>
<path opacity="0.4" d="M313.696 207.729L310.065 208.926L310.229 209.423L313.86 208.227L313.696 207.729Z" fill="white"/>
<path opacity="0.4" d="M286.583 216.647L282.503 217.992L282.667 218.489L286.747 217.144L286.583 216.647Z" fill="white"/>
<path opacity="0.4" d="M320.913 205.896L320.666 205.698L320.745 205.945L320.913 205.896Z" fill="white"/>
<path opacity="0.4" d="M306.629 221.736L303.046 222.918L303.209 223.415L306.793 222.234L306.629 221.736Z" fill="white"/>
<path opacity="0.4" d="M300.585 223.735L296.551 225.065L296.715 225.563L300.749 224.232L300.585 223.735Z" fill="white"/>
<path opacity="0.4" d="M311.09 220.303L307.112 221.614L307.276 222.111L311.254 220.801L311.09 220.303Z" fill="white"/>
<path opacity="0.4" d="M317.175 218.308L313.544 219.505L313.708 220.002L317.338 218.806L317.175 218.308Z" fill="white"/>
<path opacity="0.4" d="M328.42 215.142L329.408 214.816L329.072 214.371L328.262 214.638L328.42 215.142Z" fill="white"/>
<path opacity="0.4" d="M321.622 216.818L317.691 218.114L317.855 218.611L321.786 217.315L321.622 216.818Z" fill="white"/>
<path opacity="0.4" d="M327.754 214.815L324.067 216.03L324.231 216.527L327.918 215.312L327.754 214.815Z" fill="white"/>
<path opacity="0.4" d="M296.051 225.24L292.524 226.403L292.688 226.9L296.215 225.737L296.051 225.24Z" fill="white"/>
<path opacity="0.4" d="M290.065 227.222L288.988 227.577C289.117 227.725 289.235 227.874 289.364 228.012L290.233 227.725L290.065 227.222Z" fill="white"/>
<path opacity="0.4" d="M331.237 225.343L327.55 226.559L327.714 227.056L331.401 225.84L331.237 225.343Z" fill="white"/>
<path opacity="0.4" d="M304.075 234.301L300.041 235.631L300.205 236.128L304.239 234.798L304.075 234.301Z" fill="white"/>
<path opacity="0.4" d="M325.109 227.363L321.178 228.659L321.342 229.156L325.273 227.86L325.109 227.363Z" fill="white"/>
<path opacity="0.4" d="M314.587 230.84L310.61 232.151L310.774 232.649L314.751 231.337L314.587 230.84Z" fill="white"/>
<path opacity="0.4" d="M320.672 228.817L317.043 230.016L317.207 230.513L320.836 229.314L320.672 228.817Z" fill="white"/>
<path opacity="0.4" d="M299.541 235.784L296.014 236.947L296.178 237.444L299.705 236.281L299.541 235.784Z" fill="white"/>
<path opacity="0.4" d="M331.897 225.701L335.413 224.545C335.324 224.387 335.245 224.229 335.166 224.071L331.739 225.207L331.897 225.701Z" fill="white"/>
<path opacity="0.4" d="M309.314 233.431L305.73 234.601L305.892 235.098L309.477 233.928L309.314 233.431Z" fill="white"/>
<path opacity="0.4" d="M318.048 241.439L314.07 242.75L314.234 243.247L318.212 241.936L318.048 241.439Z" fill="white"/>
<path opacity="0.4" d="M324.158 239.398L320.528 240.595L320.692 241.092L324.322 239.895L324.158 239.398Z" fill="white"/>
<path opacity="0.4" d="M339.092 234.471L335.218 235.748L335.382 236.245L339.256 234.968L339.092 234.471Z" fill="white"/>
<path opacity="0.4" d="M334.737 235.899L331.05 237.114L331.214 237.611L334.901 236.396L334.737 235.899Z" fill="white"/>
<path opacity="0.4" d="M303.015 246.383L299.903 247.371C299.903 247.548 299.992 247.716 300.042 247.884L303.183 246.847L303.015 246.383Z" fill="white"/>
<path opacity="0.4" d="M313.59 242.891L310.006 244.072L310.17 244.569L313.754 243.388L313.59 242.891Z" fill="white"/>
<path opacity="0.4" d="M307.556 244.881L303.522 246.211L303.686 246.708L307.72 245.378L307.556 244.881Z" fill="white"/>
<path opacity="0.4" d="M328.59 237.932L324.659 239.229L324.823 239.726L328.754 238.43L328.59 237.932Z" fill="white"/>
<path opacity="0.4" d="M327.628 250.002L323.997 251.198L324.161 251.695L327.792 250.499L327.628 250.002Z" fill="white"/>
<path opacity="0.4" d="M311.033 255.477L306.999 256.807L307.163 257.304L311.197 255.974L311.033 255.477Z" fill="white"/>
<path opacity="0.4" d="M321.536 252.005L317.558 253.315L317.722 253.813L321.7 252.502L321.536 252.005Z" fill="white"/>
<path opacity="0.4" d="M306.511 256.937L302.984 258.1L303.148 258.597L306.675 257.434L306.511 256.937Z" fill="white"/>
<path opacity="0.4" d="M342.582 245.035L338.708 246.312L338.872 246.81L342.746 245.532L342.582 245.035Z" fill="white"/>
<path opacity="0.4" d="M317.08 253.444L313.496 254.626L313.66 255.123L317.244 253.942L317.08 253.444Z" fill="white"/>
<path opacity="0.4" d="M338.217 246.474L334.53 247.689L334.694 248.187L338.381 246.971L338.217 246.474Z" fill="white"/>
<path opacity="0.4" d="M332.059 248.543L328.128 249.839L328.292 250.336L332.223 249.041L332.059 248.543Z" fill="white"/>
<path opacity="0.2" d="M301.899 207.477L301.75 207.013C300.526 207.388 299.33 207.793 298.185 208.228L298.323 208.652L301.899 207.477Z" fill="black"/>
<path opacity="0.2" d="M306.383 205.995L306.333 205.837C304.941 206.133 303.578 206.479 302.254 206.825L302.402 207.269L306.383 205.995Z" fill="black"/>
<path opacity="0.2" d="M295.774 209.176C294.846 209.571 293.947 209.976 293.078 210.391L295.873 209.462L295.774 209.176Z" fill="black"/>
<path opacity="0.2" d="M303.828 216.613L300.244 217.783L301.046 220.242L304.63 219.072L303.828 216.613Z" fill="black"/>
<path opacity="0.2" d="M309.03 214.062L305.052 215.374L305.863 217.832L309.84 216.52L309.03 214.062Z" fill="black"/>
<path opacity="0.2" d="M287.981 220.989L283.901 222.342L284.069 222.866C284.672 223.39 285.265 223.903 285.818 224.427L288.781 223.439L287.981 220.989Z" fill="black"/>
<path opacity="0.2" d="M322.819 212.237L326.346 211.071C325.664 210.301 325.002 209.619 324.37 208.997L321.99 209.787L322.819 212.237Z" fill="black"/>
<path opacity="0.2" d="M319.561 210.558L315.63 211.854L316.441 214.312L320.371 213.016L319.561 210.558Z" fill="black"/>
<path opacity="0.2" d="M315.13 212.032L311.499 213.229L312.31 215.687L315.94 214.49L315.13 212.032Z" fill="black"/>
<path opacity="0.2" d="M294.003 219.003L290.475 220.166L291.286 222.624L294.813 221.461L294.003 219.003Z" fill="black"/>
<path opacity="0.2" d="M298.537 217.511L294.503 218.841L295.314 221.299L299.347 219.968L298.537 217.511Z" fill="black"/>
<path opacity="0.2" d="M318.605 222.547L314.975 223.744L315.785 226.202L319.416 225.005L318.605 222.547Z" fill="black"/>
<path opacity="0.2" d="M302.002 228.045L297.969 229.375L298.779 231.833L302.813 230.503L302.002 228.045Z" fill="black"/>
<path opacity="0.2" d="M307.262 227.153L303.677 228.322L304.479 230.781L308.064 229.611L307.262 227.153Z" fill="black"/>
<path opacity="0.2" d="M330.455 221.376L333.151 220.487C332.687 219.696 332.223 218.946 331.749 218.225L329.645 218.916L330.455 221.376Z" fill="black"/>
<path opacity="0.2" d="M312.505 224.577L308.528 225.889L309.338 228.346L313.316 227.035L312.505 224.577Z" fill="black"/>
<path opacity="0.2" d="M323.027 221.101L319.096 222.397L319.907 224.855L323.837 223.559L323.027 221.101Z" fill="black"/>
<path opacity="0.2" d="M297.468 229.528L293.941 230.691L294.752 233.149L298.279 231.986L297.468 229.528Z" fill="black"/>
<path opacity="0.2" d="M329.174 219.068L325.487 220.283L326.298 222.741L329.984 221.525L329.174 219.068Z" fill="black"/>
<path opacity="0.2" d="M315.968 235.072L311.99 236.384L312.801 238.842L316.778 237.53L315.968 235.072Z" fill="black"/>
<path opacity="0.2" d="M310.692 237.671L307.107 238.841L307.91 241.299L311.494 240.13L310.692 237.671Z" fill="black"/>
<path opacity="0.2" d="M300.931 240.052L297.72 241.109C298.056 241.919 298.382 242.719 298.708 243.519L301.77 242.531L300.931 240.052Z" fill="black"/>
<path opacity="0.2" d="M332.639 229.592L328.953 230.808L329.763 233.265L333.45 232.05L332.639 229.592Z" fill="black"/>
<path opacity="0.2" d="M305.475 238.531L301.441 239.861L302.251 242.319L306.285 240.989L305.475 238.531Z" fill="black"/>
<path opacity="0.2" d="M322.071 233.063L318.441 234.26L319.251 236.718L322.881 235.52L322.071 233.063Z" fill="black"/>
<path opacity="0.2" d="M326.492 231.616L322.562 232.912L323.372 235.37L327.303 234.074L326.492 231.616Z" fill="black"/>
<path opacity="0.2" d="M337.005 228.164L333.13 229.441L333.941 231.899L337.815 230.622L337.005 228.164Z" fill="black"/>
<path opacity="0.2" d="M324.698 244.772L321.067 245.957L321.869 248.416L325.5 247.231L324.698 244.772Z" fill="black"/>
<path opacity="0.2" d="M314.965 247.078L311.381 248.26L312.192 250.718L315.775 249.536L314.965 247.078Z" fill="black"/>
<path opacity="0.2" d="M340.477 238.65L336.603 239.928L337.413 242.386L341.288 241.108L340.477 238.65Z" fill="black"/>
<path opacity="0.2" d="M308.94 249.057L304.907 250.387L305.717 252.845L309.751 251.514L308.94 249.057Z" fill="black"/>
<path opacity="0.2" d="M305.197 253.022L304.397 250.572L300.891 251.718C300.891 251.797 300.891 251.866 300.94 251.945L301.671 254.187L305.197 253.022Z" fill="black"/>
<path opacity="0.2" d="M336.102 240.088L332.416 241.304L333.226 243.761L336.913 242.546L336.102 240.088Z" fill="black"/>
<path opacity="0.2" d="M329.965 242.113L326.034 243.409L326.845 245.867L330.775 244.571L329.965 242.113Z" fill="black"/>
<path opacity="0.2" d="M318.61 246.732L314.631 248.03L315.433 250.489L319.412 249.19L318.61 246.732Z" fill="black"/>
<path opacity="0.2" d="M317.569 258.74L313.984 259.91L314.786 262.369L318.371 261.199L317.569 258.74Z" fill="black"/>
<path opacity="0.2" d="M322.033 257.301L318.054 258.6L318.857 261.058L322.835 259.76L322.033 257.301Z" fill="black"/>
<path opacity="0.2" d="M340.875 252.924L344.007 251.887C343.868 251.017 343.72 250.158 343.562 249.318L340.065 250.464L340.875 252.924Z" fill="black"/>
<path opacity="0.2" d="M339.568 250.631L335.881 251.847L336.691 254.304L340.378 253.089L339.568 250.631Z" fill="black"/>
<path opacity="0.2" d="M312.398 259.592L308.358 260.915L309.168 263.355L311.144 262.723L313.208 262.041L312.398 259.592Z" fill="black"/>
<path opacity="0.2" d="M328.988 254.138L325.357 255.335L326.167 257.793L329.798 256.596L328.988 254.138Z" fill="black"/>
<path opacity="0.2" d="M304.328 262.248L305.128 264.648L308.665 263.512L307.865 261.082L304.328 262.248Z" fill="black"/>
<path opacity="0.2" d="M332.579 253.84L328.647 255.123L329.449 257.582L333.381 256.299L332.579 253.84Z" fill="black"/>
<path opacity="0.2" d="M303.133 258.623L301.908 259.028C302.057 260.51 302.185 261.814 302.333 262.91L304.309 262.248L303.133 258.623Z" fill="white"/>
<path opacity="0.2" d="M301.671 254.188L301.335 254.296C301.562 255.798 301.721 257.2 301.859 258.484L302.975 258.119L301.671 254.188Z" fill="white"/>
<path opacity="0.2" d="M296.011 237.535L296.476 238.434L296.169 237.446L296.011 237.535Z" fill="white"/>
<path opacity="0.2" d="M291.276 222.628L288.818 223.438L290.064 227.219L292.522 226.408L291.276 222.628Z" fill="white"/>
<path opacity="0.2" d="M289.221 216.326L286.763 217.137L288.028 220.973L290.486 220.163L289.221 216.326Z" fill="white"/>
<path opacity="0.2" d="M294.737 233.157L293.621 233.523C294.411 234.708 295.122 235.883 295.764 237.059L296.001 236.98L294.737 233.157Z" fill="white"/>
<path opacity="0.2" d="M289.038 215.852L288.05 212.987C287.25 213.452 286.489 213.916 285.788 214.35L286.539 216.662L289.038 215.852Z" fill="white"/>
<path opacity="0.2" d="M292.683 226.915L290.233 227.725L290.934 229.859C291.329 230.343 291.715 230.846 292.07 231.311L293.927 230.698L292.683 226.915Z" fill="white"/>
<path opacity="0.4" d="M289.031 215.86L286.573 216.67L286.737 217.167L289.195 216.357L289.031 215.86Z" fill="white"/>
<path opacity="0.2" d="M289.031 215.86L286.573 216.67L286.737 217.167L289.195 216.357L289.031 215.86Z" fill="white"/>
<path opacity="0.4" d="M292.538 226.378L290.081 227.188L290.245 227.686L292.702 226.875L292.538 226.378Z" fill="white"/>
<path opacity="0.2" d="M292.538 226.378L290.081 227.188L290.245 227.686L292.702 226.875L292.538 226.378Z" fill="white"/>
<path opacity="0.4" d="M296.002 237.001L295.765 237.08L296.011 237.554L296.17 237.505L296.002 237.001Z" fill="white"/>
<path opacity="0.2" d="M296.002 237.001L295.765 237.08L296.011 237.554L296.17 237.505L296.002 237.001Z" fill="white"/>
<path opacity="0.4" d="M302.975 258.119L301.859 258.485C301.859 258.672 301.859 258.85 301.909 259.028L303.133 258.623L302.975 258.119Z" fill="white"/>
<path opacity="0.2" d="M302.975 258.119L301.859 258.485C301.859 258.672 301.859 258.85 301.909 259.028L303.133 258.623L302.975 258.119Z" fill="white"/>
<path opacity="0.2" d="M290.461 220.187L288.003 220.997L288.813 223.455L291.271 222.644L290.461 220.187Z" fill="black"/>
<path opacity="0.2" d="M290.461 220.187L288.003 220.997L288.813 223.455L291.271 222.644L290.461 220.187Z" fill="white"/>
<path opacity="0.2" d="M293.907 230.699L292.05 231.312C292.604 232.052 293.117 232.783 293.601 233.524L294.717 233.159L293.907 230.699Z" fill="black"/>
<path opacity="0.2" d="M293.907 230.699L292.05 231.312C292.604 232.052 293.117 232.783 293.601 233.524L294.717 233.159L293.907 230.699Z" fill="white"/>
<path opacity="0.2" d="M300.94 251.944C301.089 252.744 301.217 253.535 301.336 254.295L301.671 254.187L300.94 251.944Z" fill="black"/>
<path opacity="0.2" d="M300.94 251.944C301.089 252.744 301.217 253.535 301.336 254.295L301.671 254.187L300.94 251.944Z" fill="white"/>
<path opacity="0.2" d="M302.333 262.91C302.421 263.747 302.6 264.571 302.867 265.369L305.129 264.648L304.328 262.248L302.333 262.91Z" fill="black"/>
<path opacity="0.2" d="M302.333 262.91C302.421 263.747 302.6 264.571 302.867 265.369L305.129 264.648L304.328 262.248L302.333 262.91Z" fill="white"/>
<path opacity="0.2" d="M301.8 219.152L299.342 219.963L300.589 223.743L303.047 222.933L301.8 219.152Z" fill="white"/>
<path opacity="0.2" d="M303.207 223.433L300.749 224.243L301.996 228.024L304.453 227.213L303.207 223.433Z" fill="white"/>
<path opacity="0.2" d="M310.188 244.561L307.73 245.371L308.943 249.048L311.4 248.238L310.188 244.561Z" fill="white"/>
<path opacity="0.2" d="M299.726 212.874L297.268 213.685L298.534 217.521L300.991 216.711L299.726 212.874Z" fill="white"/>
<path opacity="0.2" d="M311.358 251.833L308.9 252.636L310.183 256.568L312.641 255.765L311.358 251.833Z" fill="white"/>
<path opacity="0.2" d="M306.698 233.993L304.24 234.804L305.471 238.537L307.929 237.727L306.698 233.993Z" fill="white"/>
<path opacity="0.2" d="M305.262 229.663L302.805 230.474L304.067 234.301L306.524 233.491L305.262 229.663Z" fill="white"/>
<path opacity="0.2" d="M308.738 240.187L306.28 240.997L307.56 244.881L310.018 244.07L308.738 240.187Z" fill="white"/>
<path opacity="0.2" d="M313.208 262.04L315.668 261.25L313.208 262.04Z" fill="white"/>
<path opacity="0.2" d="M298.335 208.629L295.877 209.439L297.105 213.164L299.563 212.353L298.335 208.629Z" fill="white"/>
<path opacity="0.2" d="M313.669 255.139L311.211 255.949L312.408 259.58L314.866 258.769L313.669 255.139Z" fill="white"/>
<path opacity="0.4" d="M299.566 212.343L297.108 213.154L297.273 213.651L299.73 212.84L299.566 212.343Z" fill="white"/>
<path opacity="0.2" d="M299.566 212.343L297.108 213.154L297.273 213.651L299.73 212.84L299.566 212.343Z" fill="white"/>
<path opacity="0.4" d="M303.044 222.926L300.586 223.736L300.75 224.234L303.208 223.423L303.044 222.926Z" fill="white"/>
<path opacity="0.2" d="M303.044 222.926L300.586 223.736L300.75 224.234L303.208 223.423L303.044 222.926Z" fill="white"/>
<path opacity="0.4" d="M306.524 233.512L304.066 234.322L304.23 234.819L306.688 234.009L306.524 233.512Z" fill="white"/>
<path opacity="0.2" d="M306.524 233.512L304.066 234.322L304.23 234.819L306.688 234.009L306.524 233.512Z" fill="white"/>
<path opacity="0.4" d="M310.014 244.067L307.556 244.878L307.72 245.375L310.178 244.565L310.014 244.067Z" fill="white"/>
<path opacity="0.2" d="M310.014 244.067L307.556 244.878L307.72 245.375L310.178 244.565L310.014 244.067Z" fill="white"/>
<path opacity="0.4" d="M313.487 254.669L311.029 255.479L311.193 255.977L313.651 255.166L313.487 254.669Z" fill="white"/>
<path opacity="0.2" d="M313.487 254.669L311.029 255.479L311.193 255.977L313.651 255.166L313.487 254.669Z" fill="white"/>
<path opacity="0.2" d="M298.323 208.652L298.184 208.228C297.355 208.534 296.555 208.85 295.774 209.215L295.873 209.502L298.323 208.652Z" fill="black"/>
<path opacity="0.2" d="M298.323 208.652L298.184 208.228C297.355 208.534 296.555 208.85 295.774 209.215L295.873 209.502L298.323 208.652Z" fill="white"/>
<path opacity="0.2" d="M300.978 216.739L298.52 217.549L299.33 220.007L301.788 219.197L300.978 216.739Z" fill="black"/>
<path opacity="0.2" d="M300.978 216.739L298.52 217.549L299.33 220.007L301.788 219.197L300.978 216.739Z" fill="white"/>
<path opacity="0.2" d="M304.468 227.197L302.01 228.008L302.821 230.466L305.278 229.655L304.468 227.197Z" fill="black"/>
<path opacity="0.2" d="M304.468 227.197L302.01 228.008L302.821 230.466L305.278 229.655L304.468 227.197Z" fill="white"/>
<path opacity="0.2" d="M307.924 237.741L305.466 238.552L306.276 241.01L308.734 240.199L307.924 237.741Z" fill="black"/>
<path opacity="0.2" d="M307.924 237.741L305.466 238.552L306.276 241.01L308.734 240.199L307.924 237.741Z" fill="white"/>
<path opacity="0.2" d="M311.389 248.246L308.932 249.057L309.742 251.514L312.2 250.704L311.389 248.246Z" fill="black"/>
<path opacity="0.2" d="M311.389 248.246L308.932 249.057L309.742 251.514L312.2 250.704L311.389 248.246Z" fill="white"/>
<path opacity="0.2" d="M314.839 258.802L312.381 259.612L313.191 262.07L315.649 261.26L314.839 258.802Z" fill="black"/>
<path opacity="0.2" d="M314.839 258.802L312.381 259.612L313.191 262.07L315.649 261.26L314.839 258.802Z" fill="white"/>
<path opacity="0.2" d="M317.203 230.548L314.745 231.358L315.976 235.092L318.434 234.282L317.203 230.548Z" fill="white"/>
<path opacity="0.2" d="M324.184 251.655L321.726 252.466L322.923 256.096L325.381 255.286L324.184 251.655Z" fill="white"/>
<path opacity="0.2" d="M307.618 209.729L310.067 208.919L308.892 205.393L307.736 205.59L306.383 206.035L307.618 209.729Z" fill="white"/>
<path opacity="0.2" d="M321.878 248.392L319.419 249.194L320.702 253.126L323.161 252.324L321.878 248.392Z" fill="white"/>
<path opacity="0.2" d="M315.787 226.208L313.329 227.019L314.592 230.846L317.049 230.035L315.787 226.208Z" fill="white"/>
<path opacity="0.2" d="M311.575 216.831L309.116 217.633L310.35 221.414L312.809 220.612L311.575 216.831Z" fill="white"/>
<path opacity="0.2" d="M323.718 258.574V258.682L326.178 257.892V257.764L323.718 258.574Z" fill="white"/>
<path opacity="0.2" d="M310.241 209.4L307.783 210.211L309.048 214.048L311.506 213.237L310.241 209.4Z" fill="white"/>
<path opacity="0.2" d="M320.694 241.098L318.236 241.908L319.448 245.585L321.906 244.775L320.694 241.098Z" fill="white"/>
<path opacity="0.2" d="M313.731 219.967L311.274 220.777L312.52 224.558L314.978 223.747L313.731 219.967Z" fill="white"/>
<path opacity="0.2" d="M319.253 236.713L316.795 237.523L318.076 241.407L320.534 240.597L319.253 236.713Z" fill="white"/>
<path opacity="0.4" d="M310.063 208.925L307.605 209.735L307.769 210.233L310.227 209.423L310.063 208.925Z" fill="white"/>
<path opacity="0.2" d="M310.063 208.925L307.605 209.735L307.769 210.233L310.227 209.423L310.063 208.925Z" fill="white"/>
<path opacity="0.4" d="M313.559 219.471L311.101 220.281L311.265 220.778L313.723 219.968L313.559 219.471Z" fill="white"/>
<path opacity="0.2" d="M313.559 219.471L311.101 220.281L311.265 220.778L313.723 219.968L313.559 219.471Z" fill="white"/>
<path opacity="0.4" d="M317.049 230.036L314.591 230.847L314.755 231.344L317.213 230.533L317.049 230.036Z" fill="white"/>
<path opacity="0.2" d="M317.049 230.036L314.591 230.847L314.755 231.344L317.213 230.533L317.049 230.036Z" fill="white"/>
<path opacity="0.4" d="M320.519 240.633L318.061 241.443L318.225 241.941L320.683 241.131L320.519 240.633Z" fill="white"/>
<path opacity="0.2" d="M320.519 240.633L318.061 241.443L318.225 241.941L320.683 241.131L320.519 240.633Z" fill="white"/>
<path opacity="0.4" d="M324.001 251.205L321.543 252.016L321.707 252.513L324.165 251.702L324.001 251.205Z" fill="white"/>
<path opacity="0.2" d="M324.001 251.205L321.543 252.016L321.707 252.513L324.165 251.702L324.001 251.205Z" fill="white"/>
<path opacity="0.2" d="M306.383 205.994L307.736 205.55L306.333 205.836L306.383 205.994Z" fill="black"/>
<path opacity="0.2" d="M306.383 205.994L307.736 205.55L306.333 205.836L306.383 205.994Z" fill="white"/>
<path opacity="0.2" d="M311.494 213.276L309.036 214.086L309.847 216.544L312.304 215.734L311.494 213.276Z" fill="black"/>
<path opacity="0.2" d="M311.494 213.276L309.036 214.086L309.847 216.544L312.304 215.734L311.494 213.276Z" fill="white"/>
<path opacity="0.2" d="M314.973 223.751L312.515 224.562L313.325 227.019L315.783 226.209L314.973 223.751Z" fill="black"/>
<path opacity="0.2" d="M314.973 223.751L312.515 224.562L313.325 227.019L315.783 226.209L314.973 223.751Z" fill="white"/>
<path opacity="0.2" d="M318.448 234.246L315.99 235.057L316.801 237.514L319.259 236.704L318.448 234.246Z" fill="black"/>
<path opacity="0.2" d="M318.448 234.246L315.99 235.057L316.801 237.514L319.259 236.704L318.448 234.246Z" fill="white"/>
<path opacity="0.2" d="M321.894 244.824L319.436 245.634L320.246 248.092L322.704 247.282L321.894 244.824Z" fill="black"/>
<path opacity="0.2" d="M321.894 244.824L319.436 245.634L320.246 248.092L322.704 247.282L321.894 244.824Z" fill="white"/>
<path opacity="0.2" d="M325.367 255.307L322.909 256.117L323.719 258.575L326.177 257.764L325.367 255.307Z" fill="black"/>
<path opacity="0.2" d="M325.367 255.307L322.909 256.117L323.719 258.575L326.177 257.764L325.367 255.307Z" fill="white"/>
<path opacity="0.2" d="M331.208 237.643L328.75 238.453L329.963 242.13L332.421 241.32L331.208 237.643Z" fill="white"/>
<path opacity="0.2" d="M322.83 212.213L320.373 213.023L321.619 216.804L324.077 215.993L322.83 212.213Z" fill="white"/>
<path opacity="0.2" d="M320.742 205.978L318.284 206.788L319.549 210.625L322.007 209.815L320.742 205.978Z" fill="white"/>
<path opacity="0.2" d="M333.23 243.78L330.772 244.591L332.068 248.521L334.526 247.711L333.23 243.78Z" fill="white"/>
<path opacity="0.2" d="M327.727 227.072L325.27 227.883L326.501 231.616L328.959 230.806L327.727 227.072Z" fill="white"/>
<path opacity="0.2" d="M329.767 233.257L327.31 234.067L328.59 237.951L331.048 237.141L329.767 233.257Z" fill="white"/>
<path opacity="0.2" d="M334.238 255.106L334.297 255.303L336.756 254.513L336.687 254.296L334.238 255.106Z" fill="white"/>
<path opacity="0.2" d="M320.409 205.511C319.757 205.027 319.421 204.79 319.421 204.79C318.829 204.79 318.246 204.74 317.663 204.721L318.167 206.262L320.409 205.511Z" fill="white"/>
<path opacity="0.2" d="M324.237 216.494L321.779 217.305L323.026 221.085L325.484 220.275L324.237 216.494Z" fill="white"/>
<path opacity="0.2" d="M334.689 248.221L332.231 249.031L333.428 252.662L335.886 251.851L334.689 248.221Z" fill="white"/>
<path opacity="0.2" d="M326.302 222.727L323.845 223.537L325.107 227.364L327.565 226.554L326.302 222.727Z" fill="white"/>
<path opacity="0.4" d="M318.295 206.755L320.745 205.945L320.666 205.698L320.409 205.511L318.127 206.261L318.295 206.755Z" fill="white"/>
<path opacity="0.2" d="M318.295 206.755L320.745 205.945L320.666 205.698L320.409 205.511L318.127 206.261L318.295 206.755Z" fill="white"/>
<path opacity="0.4" d="M324.083 215.985L321.625 216.796L321.789 217.293L324.247 216.483L324.083 215.985Z" fill="white"/>
<path opacity="0.2" d="M324.083 215.985L321.625 216.796L321.789 217.293L324.247 216.483L324.083 215.985Z" fill="white"/>
<path opacity="0.4" d="M327.554 226.572L325.096 227.383L325.26 227.88L327.718 227.07L327.554 226.572Z" fill="white"/>
<path opacity="0.2" d="M327.554 226.572L325.096 227.383L325.26 227.88L327.718 227.07L327.554 226.572Z" fill="white"/>
<path opacity="0.4" d="M331.044 237.138L328.586 237.948L328.75 238.445L331.208 237.635L331.044 237.138Z" fill="white"/>
<path opacity="0.2" d="M331.044 237.138L328.586 237.948L328.75 238.445L331.208 237.635L331.044 237.138Z" fill="white"/>
<path opacity="0.4" d="M334.534 247.693L332.076 248.504L332.24 249.001L334.698 248.191L334.534 247.693Z" fill="white"/>
<path opacity="0.2" d="M334.534 247.693L332.076 248.504L332.24 249.001L334.698 248.191L334.534 247.693Z" fill="white"/>
<path opacity="0.2" d="M322.025 209.763L319.568 210.573L320.378 213.031L322.836 212.221L322.025 209.763Z" fill="black"/>
<path opacity="0.2" d="M322.025 209.763L319.568 210.573L320.378 213.031L322.836 212.221L322.025 209.763Z" fill="white"/>
<path opacity="0.2" d="M325.478 220.297L323.02 221.107L323.831 223.565L326.289 222.755L325.478 220.297Z" fill="black"/>
<path opacity="0.2" d="M325.478 220.297L323.02 221.107L323.831 223.565L326.289 222.755L325.478 220.297Z" fill="white"/>
<path opacity="0.2" d="M328.954 230.783L326.496 231.594L327.306 234.052L329.764 233.241L328.954 230.783Z" fill="black"/>
<path opacity="0.2" d="M328.954 230.783L326.496 231.594L327.306 234.052L329.764 233.241L328.954 230.783Z" fill="white"/>
<path opacity="0.2" d="M332.419 241.308L329.962 242.118L330.772 244.576L333.23 243.765L332.419 241.308Z" fill="black"/>
<path opacity="0.2" d="M332.419 241.308L329.962 242.118L330.772 244.576L333.23 243.765L332.419 241.308Z" fill="white"/>
<path opacity="0.2" d="M335.871 251.868L333.413 252.678L334.223 255.136L336.681 254.326L335.871 251.868Z" fill="black"/>
<path opacity="0.2" d="M335.871 251.868L333.413 252.678L334.223 255.136L336.681 254.326L335.871 251.868Z" fill="white"/>
<path opacity="0.2" d="M337.112 228.111L336.668 227.123L337.003 228.16L337.112 228.111Z" fill="white"/>
<path opacity="0.2" d="M342.584 245.062H342.673C342.357 243.67 342.021 242.336 341.686 241.032L341.3 241.161L342.584 245.062Z" fill="white"/>
<path opacity="0.2" d="M339.098 234.492L339.601 234.324C339.127 233 338.614 231.726 338.14 230.501L337.814 230.61L339.098 234.492Z" fill="white"/>
<path opacity="0.2" d="M340.47 238.671L340.954 238.512C340.579 237.248 340.184 236.013 339.769 234.828L339.265 234.996L340.47 238.671Z" fill="white"/>
<path opacity="0.2" d="M342.9 246.029C342.9 245.861 342.831 245.703 342.792 245.545H342.742L342.9 246.029Z" fill="white"/>
<path opacity="0.4" d="M339.265 235.023L339.769 234.855C339.71 234.687 339.651 234.519 339.601 234.352L339.097 234.519L339.265 235.023Z" fill="white"/>
<path opacity="0.2" d="M339.265 235.023L339.769 234.855C339.71 234.687 339.651 234.519 339.601 234.352L339.097 234.519L339.265 235.023Z" fill="white"/>
<path opacity="0.4" d="M342.742 245.563H342.792L342.673 245.05H342.584L342.742 245.563Z" fill="white"/>
<path opacity="0.2" d="M342.742 245.563H342.792L342.673 245.05H342.584L342.742 245.563Z" fill="white"/>
<path opacity="0.2" d="M337.814 230.61L338.14 230.502C337.804 229.692 337.458 228.892 337.152 228.121H337.043L337.814 230.61Z" fill="black"/>
<path opacity="0.2" d="M337.814 230.61L338.14 230.502C337.804 229.692 337.458 228.892 337.152 228.121H337.043L337.814 230.61Z" fill="white"/>
<path opacity="0.2" d="M341.32 241.129L341.705 241.001C341.475 240.151 341.238 239.322 340.994 238.512L340.51 238.67L341.32 241.129Z" fill="black"/>
<path opacity="0.2" d="M341.32 241.129L341.705 241.001C341.475 240.151 341.238 239.322 340.994 238.512L340.51 238.67L341.32 241.129Z" fill="white"/>
<path opacity="0.3" d="M282.667 218.51L282.163 218.668L283.329 222.214L283.615 222.441L283.931 222.342L282.667 218.51Z" fill="black"/>
<path opacity="0.3" d="M282.499 218.006L282.113 216.851L281.669 217.177L281.995 218.164L282.499 218.006Z" fill="black"/>
<path opacity="0.4" d="M282.49 218.02L281.992 218.184L282.156 218.681L282.653 218.517L282.49 218.02Z" fill="white"/>
<path opacity="0.3" d="M282.49 218.02L281.992 218.184L282.156 218.681L282.653 218.517L282.49 218.02Z" fill="black"/>
<path opacity="0.2" d="M283.615 222.44L284.099 222.864L283.931 222.341L283.615 222.44Z" fill="black"/>
<path opacity="0.3" d="M283.615 222.44L284.099 222.864L283.931 222.341L283.615 222.44Z" fill="black"/>
<path opacity="0.3" d="M293.068 214.52L291.892 210.964L291.408 211.201L292.564 214.688L293.068 214.52Z" fill="black"/>
<path opacity="0.3" d="M305.71 252.835L305.212 252.999L306.508 256.93L307.006 256.766L305.71 252.835Z" fill="black"/>
<path opacity="0.3" d="M307.159 257.296L306.662 257.46L307.859 261.09L308.356 260.926L307.159 257.296Z" fill="black"/>
<path opacity="0.3" d="M303.686 246.718L303.189 246.882L304.401 250.559L304.898 250.395L303.686 246.718Z" fill="black"/>
<path opacity="0.3" d="M302.239 242.332L301.742 242.496L303.023 246.379L303.52 246.215L302.239 242.332Z" fill="black"/>
<path opacity="0.3" d="M300.208 236.129L299.71 236.293L300.942 240.026L301.439 239.863L300.208 236.129Z" fill="black"/>
<path opacity="0.3" d="M296.717 225.578L296.22 225.742L297.466 229.523L297.964 229.359L296.717 225.578Z" fill="black"/>
<path opacity="0.3" d="M298.772 231.802L298.275 231.966L299.537 235.793L300.034 235.629L298.772 231.802Z" fill="black"/>
<path opacity="0.3" d="M293.227 215.002L292.729 215.166L293.995 219.003L294.492 218.839L293.227 215.002Z" fill="black"/>
<path opacity="0.3" d="M295.308 221.281L294.811 221.445L296.059 225.226L296.556 225.062L295.308 221.281Z" fill="black"/>
<path opacity="0.4" d="M293.074 214.495L292.577 214.659L292.742 215.156L293.239 214.992L293.074 214.495Z" fill="white"/>
<path opacity="0.3" d="M293.074 214.495L292.577 214.659L292.742 215.156L293.239 214.992L293.074 214.495Z" fill="black"/>
<path opacity="0.4" d="M296.553 225.08L296.056 225.244L296.22 225.741L296.717 225.577L296.553 225.08Z" fill="white"/>
<path opacity="0.3" d="M296.553 225.08L296.056 225.244L296.22 225.741L296.717 225.577L296.553 225.08Z" fill="black"/>
<path opacity="0.4" d="M300.034 235.648L299.537 235.812L299.7 236.309L300.198 236.145L300.034 235.648Z" fill="white"/>
<path opacity="0.3" d="M300.034 235.648L299.537 235.812L299.7 236.309L300.198 236.145L300.034 235.648Z" fill="black"/>
<path opacity="0.4" d="M303.514 246.213L303.017 246.377L303.181 246.874L303.678 246.71L303.514 246.213Z" fill="white"/>
<path opacity="0.3" d="M303.514 246.213L303.017 246.377L303.181 246.874L303.678 246.71L303.514 246.213Z" fill="black"/>
<path opacity="0.4" d="M306.988 256.802L306.49 256.966L306.654 257.463L307.152 257.299L306.988 256.802Z" fill="white"/>
<path opacity="0.3" d="M306.988 256.802L306.49 256.966L306.654 257.463L307.152 257.299L306.988 256.802Z" fill="black"/>
<path opacity="0.2" d="M294.485 218.859L293.988 219.022L294.799 221.48L295.296 221.316L294.485 218.859Z" fill="black"/>
<path opacity="0.3" d="M294.485 218.859L293.988 219.022L294.799 221.48L295.296 221.316L294.485 218.859Z" fill="black"/>
<path opacity="0.2" d="M297.959 229.361L297.462 229.524L298.272 231.982L298.769 231.818L297.959 229.361Z" fill="black"/>
<path opacity="0.3" d="M297.959 229.361L297.462 229.524L298.272 231.982L298.769 231.818L297.959 229.361Z" fill="black"/>
<path opacity="0.2" d="M301.435 239.858L300.938 240.022L301.748 242.48L302.246 242.316L301.435 239.858Z" fill="black"/>
<path opacity="0.3" d="M301.435 239.858L300.938 240.022L301.748 242.48L302.246 242.316L301.435 239.858Z" fill="black"/>
<path opacity="0.2" d="M304.902 250.373L304.405 250.537L305.216 252.995L305.713 252.831L304.902 250.373Z" fill="black"/>
<path opacity="0.3" d="M304.902 250.373L304.405 250.537L305.216 252.995L305.713 252.831L304.902 250.373Z" fill="black"/>
<path opacity="0.2" d="M307.865 261.083L308.665 263.513L309.169 263.355L308.359 260.915L307.865 261.083Z" fill="black"/>
<path opacity="0.3" d="M307.865 261.083L308.665 263.513L309.169 263.355L308.359 260.915L307.865 261.083Z" fill="black"/>
<path opacity="0.3" d="M302.401 207.287L301.904 207.451L303.132 211.175L303.629 211.011L302.401 207.287Z" fill="black"/>
<path opacity="0.3" d="M317.744 253.777L317.247 253.941L318.444 257.572L318.941 257.408L317.744 253.777Z" fill="black"/>
<path opacity="0.3" d="M314.264 243.207L313.766 243.371L314.979 247.048L315.476 246.884L314.264 243.207Z" fill="black"/>
<path opacity="0.3" d="M312.813 238.822L312.316 238.986L313.597 242.87L314.094 242.706L312.813 238.822Z" fill="black"/>
<path opacity="0.3" d="M305.876 217.798L305.379 217.962L306.625 221.742L307.123 221.578L305.876 217.798Z" fill="black"/>
<path opacity="0.3" d="M307.29 222.07L306.793 222.234L308.04 226.015L308.537 225.851L307.29 222.07Z" fill="black"/>
<path opacity="0.3" d="M310.763 232.657L310.266 232.821L311.497 236.555L311.994 236.391L310.763 232.657Z" fill="black"/>
<path opacity="0.3" d="M319.234 260.054V260.123L319.737 259.955V259.886L319.234 260.054Z" fill="black"/>
<path opacity="0.3" d="M303.073 212.597L302.576 212.76L303.828 216.598L304.325 216.435L303.073 212.597Z" fill="black"/>
<path opacity="0.3" d="M309.338 228.33L308.841 228.494L310.103 232.322L310.6 232.158L309.338 228.33Z" fill="black"/>
<path opacity="0.3" d="M316.285 249.335L315.788 249.499L317.084 253.43L317.581 253.266L316.285 249.335Z" fill="black"/>
<path opacity="0.4" d="M303.633 211.023L303.135 211.187L303.299 211.684L303.797 211.52L303.633 211.023Z" fill="white"/>
<path opacity="0.3" d="M303.633 211.023L303.135 211.187L303.299 211.684L303.797 211.52L303.633 211.023Z" fill="black"/>
<path opacity="0.4" d="M307.119 221.574L306.622 221.738L306.786 222.235L307.283 222.072L307.119 221.574Z" fill="white"/>
<path opacity="0.3" d="M307.119 221.574L306.622 221.738L306.786 222.235L307.283 222.072L307.119 221.574Z" fill="black"/>
<path opacity="0.4" d="M310.599 232.159L310.102 232.323L310.266 232.82L310.763 232.656L310.599 232.159Z" fill="white"/>
<path opacity="0.3" d="M310.599 232.159L310.102 232.323L310.266 232.82L310.763 232.656L310.599 232.159Z" fill="black"/>
<path opacity="0.4" d="M314.089 242.725L313.591 242.889L313.755 243.386L314.253 243.222L314.089 242.725Z" fill="white"/>
<path opacity="0.3" d="M314.089 242.725L313.591 242.889L313.755 243.386L314.253 243.222L314.089 242.725Z" fill="black"/>
<path opacity="0.4" d="M316.722 254.42L316.225 254.582L316.387 255.08L316.885 254.917L316.722 254.42Z" fill="white"/>
<path opacity="0.3" d="M316.722 254.42L316.225 254.582L316.387 255.08L316.885 254.917L316.722 254.42Z" fill="black"/>
<path opacity="0.2" d="M302.402 207.31L302.254 206.865L301.75 207.013L301.898 207.478L302.402 207.31Z" fill="black"/>
<path opacity="0.3" d="M302.402 207.31L302.254 206.865L301.75 207.013L301.898 207.478L302.402 207.31Z" fill="black"/>
<path opacity="0.2" d="M305.061 215.369L304.564 215.533L305.374 217.991L305.871 217.827L305.061 215.369Z" fill="black"/>
<path opacity="0.3" d="M305.061 215.369L304.564 215.533L305.374 217.991L305.871 217.827L305.061 215.369Z" fill="black"/>
<path opacity="0.2" d="M308.526 225.882L308.029 226.046L308.84 228.504L309.337 228.34L308.526 225.882Z" fill="black"/>
<path opacity="0.3" d="M308.526 225.882L308.029 226.046L308.84 228.504L309.337 228.34L308.526 225.882Z" fill="black"/>
<path opacity="0.2" d="M311.989 236.417L311.492 236.581L312.302 239.039L312.799 238.875L311.989 236.417Z" fill="black"/>
<path opacity="0.3" d="M311.989 236.417L311.492 236.581L312.302 239.039L312.799 238.875L311.989 236.417Z" fill="black"/>
<path opacity="0.2" d="M315.455 246.924L314.958 247.088L315.768 249.546L316.265 249.382L315.455 246.924Z" fill="black"/>
<path opacity="0.3" d="M315.455 246.924L314.958 247.088L315.768 249.546L316.265 249.382L315.455 246.924Z" fill="black"/>
<path opacity="0.2" d="M318.928 257.429L318.43 257.593L319.241 260.051L319.738 259.887L318.928 257.429Z" fill="black"/>
<path opacity="0.3" d="M318.928 257.429L318.43 257.593L319.241 260.051L319.738 259.887L318.928 257.429Z" fill="black"/>
<path opacity="0.3" d="M326.004 247.057L325.506 247.22L326.789 251.152L327.287 250.989L326.004 247.057Z" fill="black"/>
<path opacity="0.3" d="M323.387 235.339L322.89 235.503L324.171 239.386L324.668 239.222L323.387 235.339Z" fill="black"/>
<path opacity="0.3" d="M328.29 250.31L327.793 250.474L328.99 254.104L329.487 253.94L328.29 250.31Z" fill="black"/>
<path opacity="0.3" d="M321.349 229.154L320.852 229.318L322.084 233.052L322.581 232.888L321.349 229.154Z" fill="black"/>
<path opacity="0.3" d="M314.356 208.09L313.859 208.254L315.123 212.091L315.62 211.927L314.356 208.09Z" fill="black"/>
<path opacity="0.3" d="M329.803 256.567L329.852 256.725L330.356 256.567V256.399L329.803 256.567Z" fill="black"/>
<path opacity="0.3" d="M314.196 207.556L313.297 204.83L312.764 204.879L313.752 207.714L314.196 207.556Z" fill="black"/>
<path opacity="0.3" d="M324.82 239.74L324.322 239.904L325.534 243.582L326.032 243.418L324.82 239.74Z" fill="black"/>
<path opacity="0.3" d="M316.432 214.338L315.934 214.502L317.181 218.282L317.678 218.118L316.432 214.338Z" fill="black"/>
<path opacity="0.3" d="M319.916 224.83L319.419 224.994L320.681 228.821L321.178 228.658L319.916 224.83Z" fill="black"/>
<path opacity="0.3" d="M317.851 218.618L317.354 218.782L318.6 222.563L319.098 222.399L317.851 218.618Z" fill="black"/>
<path opacity="0.4" d="M314.192 207.574L313.695 207.738L313.859 208.235L314.356 208.071L314.192 207.574Z" fill="white"/>
<path opacity="0.3" d="M314.192 207.574L313.695 207.738L313.859 208.235L314.356 208.071L314.192 207.574Z" fill="black"/>
<path opacity="0.4" d="M317.678 218.112L317.181 218.276L317.345 218.774L317.842 218.61L317.678 218.112Z" fill="white"/>
<path opacity="0.3" d="M317.678 218.112L317.181 218.276L317.345 218.774L317.842 218.61L317.678 218.112Z" fill="black"/>
<path opacity="0.4" d="M321.157 228.699L320.66 228.863L320.823 229.36L321.321 229.197L321.157 228.699Z" fill="white"/>
<path opacity="0.3" d="M321.157 228.699L320.66 228.863L320.823 229.36L321.321 229.197L321.157 228.699Z" fill="black"/>
<path opacity="0.4" d="M324.664 239.221L324.167 239.385L324.331 239.882L324.828 239.718L324.664 239.221Z" fill="white"/>
<path opacity="0.3" d="M324.664 239.221L324.167 239.385L324.331 239.882L324.828 239.718L324.664 239.221Z" fill="black"/>
<path opacity="0.4" d="M328.124 249.836L327.627 250L327.791 250.497L328.288 250.333L328.124 249.836Z" fill="white"/>
<path opacity="0.3" d="M328.124 249.836L327.627 250L327.791 250.497L328.288 250.333L328.124 249.836Z" fill="black"/>
<path opacity="0.2" d="M315.636 211.849L315.139 212.013L315.949 214.47L316.447 214.307L315.636 211.849Z" fill="black"/>
<path opacity="0.3" d="M315.636 211.849L315.139 212.013L315.949 214.47L316.447 214.307L315.636 211.849Z" fill="black"/>
<path opacity="0.2" d="M319.095 222.395L318.598 222.559L319.408 225.016L319.905 224.853L319.095 222.395Z" fill="black"/>
<path opacity="0.3" d="M319.095 222.395L318.598 222.559L319.408 225.016L319.905 224.853L319.095 222.395Z" fill="black"/>
<path opacity="0.2" d="M322.567 232.918L322.07 233.082L322.881 235.54L323.378 235.376L322.567 232.918Z" fill="black"/>
<path opacity="0.3" d="M322.567 232.918L322.07 233.082L322.881 235.54L323.378 235.376L322.567 232.918Z" fill="black"/>
<path opacity="0.2" d="M325.177 244.678L324.68 244.84L325.482 247.298L325.979 247.136L325.177 244.678Z" fill="black"/>
<path opacity="0.3" d="M325.177 244.678L324.68 244.84L325.482 247.298L325.979 247.136L325.177 244.678Z" fill="black"/>
<path opacity="0.2" d="M329.484 253.983L328.987 254.146L329.797 256.604L330.294 256.441L329.484 253.983Z" fill="black"/>
<path opacity="0.3" d="M329.484 253.983L328.987 254.146L329.797 256.604L330.294 256.441L329.484 253.983Z" fill="black"/>
<path opacity="0.3" d="M335.38 236.265L334.882 236.429L336.094 240.106L336.592 239.942L335.38 236.265Z" fill="black"/>
<path opacity="0.3" d="M340.332 253.082L340.411 253.329L340.915 253.171L340.836 252.924L340.332 253.082Z" fill="black"/>
<path opacity="0.3" d="M328.252 214.638L327.531 212.445L326.622 211.378L327.748 214.805L328.252 214.638Z" fill="black"/>
<path opacity="0.3" d="M337.4 242.397L336.902 242.561L338.199 246.491L338.696 246.327L337.4 242.397Z" fill="black"/>
<path opacity="0.3" d="M330.482 221.341L329.985 221.505L331.247 225.332L331.744 225.168L330.482 221.341Z" fill="black"/>
<path opacity="0.3" d="M333.934 231.866L333.437 232.03L334.718 235.914L335.215 235.75L333.934 231.866Z" fill="black"/>
<path opacity="0.3" d="M331.904 225.677L331.407 225.841L332.639 229.574L333.136 229.41L331.904 225.677Z" fill="black"/>
<path opacity="0.3" d="M338.878 246.813L338.381 246.977L339.579 250.607L340.076 250.443L338.878 246.813Z" fill="black"/>
<path opacity="0.3" d="M328.421 215.132L327.924 215.296L329.17 219.077L329.667 218.913L328.421 215.132Z" fill="black"/>
<path opacity="0.4" d="M328.253 214.603L327.756 214.767L327.92 215.264L328.417 215.1L328.253 214.603Z" fill="white"/>
<path opacity="0.3" d="M328.253 214.603L327.756 214.767L327.92 215.264L328.417 215.1L328.253 214.603Z" fill="black"/>
<path opacity="0.4" d="M331.743 225.168L331.246 225.332L331.41 225.829L331.907 225.665L331.743 225.168Z" fill="white"/>
<path opacity="0.3" d="M331.743 225.168L331.246 225.332L331.41 225.829L331.907 225.665L331.743 225.168Z" fill="black"/>
<path opacity="0.4" d="M335.22 235.753L334.723 235.917L334.887 236.414L335.384 236.25L335.22 235.753Z" fill="white"/>
<path opacity="0.3" d="M335.22 235.753L334.723 235.917L334.887 236.414L335.384 236.25L335.22 235.753Z" fill="black"/>
<path opacity="0.4" d="M338.691 246.347L338.194 246.511L338.358 247.008L338.855 246.844L338.691 246.347Z" fill="white"/>
<path opacity="0.3" d="M338.691 246.347L338.194 246.511L338.358 247.008L338.855 246.844L338.691 246.347Z" fill="black"/>
<path opacity="0.2" d="M329.662 218.906L329.165 219.07L329.975 221.528L330.472 221.364L329.662 218.906Z" fill="black"/>
<path opacity="0.3" d="M329.662 218.906L329.165 219.07L329.975 221.528L330.472 221.364L329.662 218.906Z" fill="black"/>
<path opacity="0.2" d="M333.136 229.421L332.638 229.585L333.448 232.043L333.946 231.879L333.136 229.421Z" fill="black"/>
<path opacity="0.3" d="M333.136 229.421L332.638 229.585L333.448 232.043L333.946 231.879L333.136 229.421Z" fill="black"/>
<path opacity="0.2" d="M336.605 239.907L336.107 240.071L336.918 242.529L337.415 242.365L336.605 239.907Z" fill="black"/>
<path opacity="0.3" d="M336.605 239.907L336.107 240.071L336.918 242.529L337.415 242.365L336.605 239.907Z" fill="black"/>
<path opacity="0.2" d="M340.081 250.428L339.584 250.592L340.394 253.05L340.891 252.886L340.081 250.428Z" fill="black"/>
<path opacity="0.3" d="M340.081 250.428L339.584 250.592L340.394 253.05L340.891 252.886L340.081 250.428Z" fill="black"/>
<path opacity="0.2" d="M296.327 238.107C294.405 234.377 292.004 230.913 289.186 227.804C290.865 226.224 293.325 225.285 296.723 225.582C297.832 229.704 297.695 234.063 296.327 238.107Z" fill="black"/>
<path d="M293.404 239.578L274.942 236.506L275.051 240.645L292.949 242.403L293.404 239.578Z" fill="#0FC94B"/>
<path opacity="0.2" d="M293.404 239.578L274.942 236.506L275.051 240.645L292.949 242.403L293.404 239.578Z" fill="white"/>
<path d="M367.624 262.485L368.958 264.737C369.143 265.044 369.201 265.41 369.12 265.759C369.039 266.108 368.825 266.411 368.523 266.604L250.9 342.593L248.154 337.95L365.698 262.031C365.854 261.932 366.027 261.865 366.209 261.835C366.391 261.804 366.577 261.81 366.757 261.852C366.936 261.895 367.105 261.973 367.254 262.081C367.403 262.19 367.529 262.327 367.624 262.485Z" fill="#0FC94B"/>
<path opacity="0.2" d="M367.624 262.485L368.958 264.737C369.143 265.044 369.201 265.41 369.12 265.759C369.039 266.108 368.825 266.411 368.523 266.604L250.9 342.593L248.154 337.95L365.698 262.031C365.854 261.932 366.027 261.865 366.209 261.835C366.391 261.804 366.577 261.81 366.757 261.852C366.936 261.895 367.105 261.973 367.254 262.081C367.403 262.19 367.529 262.327 367.624 262.485Z" fill="black"/>
<path d="M245.221 340.469C245.221 340.469 235.877 326.837 238.771 312.406C241.455 321.245 245.623 329.562 251.098 337.001L245.221 340.469Z" fill="#263238"/>
<path opacity="0.5" d="M245.221 340.469C245.221 340.469 235.877 326.837 238.771 312.406C241.455 321.245 245.623 329.562 251.098 337.001L245.221 340.469Z" fill="white"/>
<path d="M247.176 343.788C247.176 343.788 254.624 358.555 268.65 362.981C262.208 356.363 256.935 348.702 253.054 340.321L247.176 343.788Z" fill="#263238"/>
<path opacity="0.5" d="M247.176 343.788C247.176 343.788 254.624 358.555 268.65 362.981C262.208 356.363 256.935 348.702 253.054 340.321L247.176 343.788Z" fill="white"/>
<path d="M243.575 339.835L246.962 345.566L255.423 340.566L252.036 334.835L243.575 339.835Z" fill="#263238"/>
<path opacity="0.3" d="M243.575 339.835L246.962 345.566L255.423 340.566L252.036 334.835L243.575 339.835Z" fill="white"/>
<path d="M354.803 261.812L354.714 271.927L363.456 270.594C363.456 270.594 364.513 263.531 359.396 260.607L354.803 261.812Z" fill="#FFC3BD"/>
<path d="M356.927 275.455L364.315 275.762L363.456 270.596L354.714 271.929L356.927 275.455Z" fill="#FFC3BD"/>
<path d="M382.026 342.464L382.48 349.694L365.777 351.443L365.333 344.212L382.026 342.464Z" fill="#FFC3BD"/>
<path d="M382.806 349.991C382.785 349.962 382.756 349.941 382.722 349.931C382.688 349.92 382.652 349.92 382.618 349.931C382.585 349.94 382.556 349.959 382.534 349.986C382.513 350.012 382.501 350.045 382.5 350.08C382.5 350.208 382.292 353.112 383.112 354.031C383.261 354.209 383.474 354.323 383.705 354.347C383.837 354.372 383.974 354.355 384.097 354.299C384.219 354.242 384.32 354.148 384.386 354.031C384.633 353.576 384.386 352.717 383.962 351.877C383.63 351.217 383.243 350.586 382.806 349.991ZM382.806 350.603C383.567 351.739 384.357 353.389 384.08 353.892C384.08 353.961 383.972 354.05 383.725 354.031C383.653 354.026 383.584 354.005 383.521 353.971C383.458 353.937 383.403 353.89 383.359 353.833C383.286 353.747 383.227 353.65 383.181 353.547C382.871 352.595 382.744 351.593 382.806 350.593V350.603Z" fill="#0FC94B"/>
<path d="M382.747 349.941C382.719 349.927 382.689 349.919 382.658 349.919C382.627 349.919 382.596 349.927 382.569 349.941C382.5 349.941 380.83 351.008 380.544 352.164C380.463 352.5 380.516 352.854 380.692 353.152C380.949 353.557 381.216 353.576 381.403 353.517C382.203 353.28 382.855 351.038 382.836 350.08C382.84 350.057 382.84 350.033 382.836 350.01C382.811 349.981 382.781 349.958 382.747 349.941ZM380.88 352.253C381.214 351.495 381.773 350.857 382.48 350.425C382.381 351.462 381.789 353.053 381.305 353.201C381.305 353.201 381.147 353.25 380.989 352.984C380.968 352.956 380.952 352.926 380.939 352.895C380.84 352.696 380.819 352.467 380.88 352.253Z" fill="#0FC94B"/>
<path d="M381.571 349.763L378.134 342.69C378.071 342.561 378.055 342.414 378.087 342.274C378.12 342.134 378.199 342.009 378.311 341.92L383.487 337.83C383.612 337.732 383.757 337.663 383.912 337.628C384.067 337.593 384.228 337.594 384.383 337.63C384.538 337.666 384.682 337.737 384.806 337.836C384.93 337.936 385.029 338.062 385.097 338.206C386.293 340.804 387.942 344.587 389.503 347.817C391.32 351.6 393.098 354.731 395.242 359.186C396.536 361.863 394.185 363.917 393.395 362.919C389.819 358.346 387.685 354.237 382.835 351.145C382.291 350.814 381.852 350.334 381.571 349.763Z" fill="#263238"/>
<path d="M375.516 355.583C375.516 355.583 322.088 365.065 305.296 360.413C294.786 357.499 294.431 329.298 296.406 303.676C296.979 296.09 297.779 288.731 298.56 282.32C300.081 269.904 301.582 261.054 301.582 261.054L344.125 251.65C344.125 251.65 347.829 268.008 342.308 280.562C341.075 283.578 339.191 286.285 336.79 288.487C334.389 290.69 331.531 292.335 328.42 293.304C328.42 293.304 324.676 305.266 321.703 317.455C318.987 328.607 316.893 339.946 318.888 342.524C321.851 346.337 374.864 342.475 374.864 342.475L375.516 355.583Z" fill="#263238"/>
<path opacity="0.2" d="M375.516 355.583C375.516 355.583 322.088 365.065 305.296 360.413C294.786 357.499 294.431 329.298 296.406 303.676C296.979 296.09 297.779 288.731 298.56 282.32C300.081 269.904 301.582 261.054 301.582 261.054L344.125 251.65C344.125 251.65 347.829 268.008 342.308 280.562C341.075 283.578 339.191 286.285 336.79 288.487C334.389 290.69 331.531 292.335 328.42 293.304C328.42 293.304 324.676 305.266 321.703 317.455C318.987 328.607 316.893 339.946 318.888 342.524C321.851 346.337 374.864 342.475 374.864 342.475L375.516 355.583Z" fill="#FAFAFA"/>
<path opacity="0.2" d="M297.315 293.876C296.999 297.057 296.703 300.346 296.446 303.675C302.471 307.744 312.843 313.977 321.703 317.444C324.291 306.835 327.452 296.415 328.232 293.876H297.315Z" fill="black"/>
<path d="M286.726 355.749C286.76 355.742 286.792 355.725 286.816 355.7C286.841 355.676 286.858 355.645 286.865 355.611C286.872 355.575 286.868 355.538 286.852 355.506C286.836 355.474 286.809 355.448 286.776 355.433C286.667 355.374 284.139 353.922 282.933 354.257C282.82 354.281 282.713 354.328 282.619 354.396C282.525 354.464 282.447 354.552 282.39 354.652C282.313 354.762 282.271 354.893 282.271 355.028C282.271 355.162 282.313 355.293 282.39 355.403C282.686 355.828 283.585 355.946 284.514 355.946C285.256 355.943 285.996 355.877 286.726 355.749ZM286.173 355.492C284.82 355.68 282.993 355.67 282.657 355.206C282.607 355.146 282.568 355.038 282.657 354.82C282.696 354.748 282.751 354.686 282.818 354.638C282.884 354.59 282.961 354.558 283.042 354.544C283.153 354.528 283.267 354.528 283.378 354.544C284.364 354.691 285.313 355.026 286.173 355.532V355.492Z" fill="#0FC94B"/>
<path d="M286.796 355.719C286.82 355.702 286.84 355.678 286.852 355.65C286.864 355.622 286.869 355.591 286.865 355.561C286.865 355.482 286.657 353.526 285.739 352.776C285.606 352.656 285.449 352.568 285.278 352.517C285.107 352.465 284.927 352.453 284.751 352.479C284.277 352.479 284.139 352.766 284.109 352.954C283.98 353.773 285.709 355.344 286.588 355.739H286.657C286.704 355.751 286.754 355.743 286.796 355.719ZM285.521 353.033C286.07 353.663 286.414 354.445 286.509 355.275C285.62 354.732 284.435 353.507 284.534 353.013C284.534 353.013 284.534 352.855 284.869 352.815H284.978C285.178 352.825 285.37 352.902 285.521 353.033Z" fill="#0FC94B"/>
<path d="M295.458 355.246L288.722 357.913L281.867 342.583L288.603 339.916L295.458 355.246Z" fill="#FFC3BD"/>
<path d="M287.467 354.742H295.369C295.513 354.741 295.652 354.79 295.763 354.88C295.875 354.97 295.952 355.096 295.982 355.236L297.414 361.676C297.45 361.832 297.45 361.994 297.414 362.15C297.378 362.306 297.307 362.451 297.206 362.575C297.104 362.699 296.976 362.798 296.831 362.865C296.686 362.932 296.527 362.965 296.367 362.96C293.512 362.96 289.393 362.753 285.808 362.753C281.61 362.753 277.985 362.98 273.066 362.98C270.102 362.98 269.273 359.967 270.517 359.701C276.187 358.456 280.81 358.328 285.709 355.305C286.231 354.957 286.84 354.762 287.467 354.742Z" fill="#263238"/>
<path d="M344.056 252.172L340.658 284.6C338.979 288.462 330.01 295.544 325.782 296.088C322.352 296.493 318.904 296.723 315.45 296.779C309.445 296.917 303.034 296.71 297.206 296.433C293.473 296.256 289.986 296.038 286.993 295.861C281.541 295.544 277.738 295.347 277.204 295.683C275.229 296.908 293.423 346.957 293.423 346.957L282.262 347.194C282.262 347.194 257.36 304.513 255.049 290.339C254.19 285.104 253.459 278.585 263.425 273.547C269.5 270.495 286.312 269.171 296.021 268.608C300.318 268.381 303.232 268.312 303.232 268.312L302.926 266.969L301.592 260.983L344.056 252.172Z" fill="#263238"/>
<path opacity="0.2" d="M344.056 252.172L340.658 284.6C338.979 288.462 330.01 295.544 325.782 296.088C322.352 296.493 318.904 296.723 315.45 296.779C309.445 296.917 303.034 296.71 297.206 296.433C293.473 296.256 289.986 296.038 286.993 295.861C281.541 295.544 277.738 295.347 277.204 295.683C275.229 296.908 293.423 346.957 293.423 346.957L282.262 347.194C282.262 347.194 257.36 304.513 255.049 290.339C254.19 285.104 253.459 278.585 263.425 273.547C269.5 270.495 286.312 269.171 296.021 268.608C300.318 268.381 303.232 268.312 303.232 268.312L302.926 266.969L301.592 260.983L344.056 252.172Z" fill="#FAFAFA"/>
<path opacity="0.2" d="M326.662 271.445L334.929 269.835C335.141 273.401 335.141 276.976 334.929 280.542L330.879 283.357L327.482 281.876C327.407 278.386 327.133 274.904 326.662 271.445Z" fill="black"/>
<path d="M304.259 261.35L304.96 264.757L300.891 265.577L301.187 262.002L304.259 261.35Z" fill="black"/>
<path d="M318.394 258.366L319.155 261.902L306.491 264.451L305.741 261.033L318.394 258.366Z" fill="black"/>
<path d="M334.178 255.037L334.929 258.731L320.765 261.576L320.024 258.02L334.178 255.037Z" fill="black"/>
<path d="M345.301 256.637L336.579 258.395H336.569L335.808 254.691L344.471 252.863L345.301 256.637Z" fill="black"/>
<path d="M254.476 252.806L250.091 250.149C249.559 249.816 248.955 249.614 248.33 249.561C247.705 249.508 247.076 249.604 246.495 249.842L243.601 251.067C242.672 251.467 241.931 252.209 241.532 253.139C241.134 254.069 241.107 255.116 241.457 256.065L242.287 258.258C242.529 258.889 242.928 259.447 243.447 259.879C243.966 260.311 244.587 260.604 245.25 260.728L250.061 261.656C250.061 261.656 254.624 261.399 256.788 258.14L254.476 252.806Z" fill="#FFC3BD"/>
<path d="M294.056 222.44C293.045 230.019 291.637 237.54 289.838 244.971C289.18 248.011 288.251 250.986 287.062 253.861C282.37 263.798 261.845 260.775 253.083 259.185L253.518 252.715C258.368 252.221 263.336 251.727 267.979 250.986C271.021 250.433 274.31 249.929 276.691 248.527C276.888 248.389 276.987 248.26 276.809 248.369C276.664 248.477 276.54 248.611 276.444 248.764C276.355 248.872 276.256 249.08 276.286 248.991C276.315 248.902 276.286 248.991 276.286 248.892C278.261 239.815 279.397 229.67 281.106 220.494L294.036 222.47L294.056 222.44Z" fill="#FFC3BD"/>
<path d="M277.116 223.843L276.306 240.25L292.218 241.238C294.357 235.476 295.838 229.492 296.634 223.399C297.72 212.958 279.516 213.363 277.116 223.843Z" fill="#0FC94B"/>
<path opacity="0.4" d="M281.395 221.726L280.917 225.837L281.437 225.897L281.915 221.786L281.395 221.726Z" fill="white"/>
<path opacity="0.4" d="M280.881 226.388L280.44 230.185L280.96 230.245L281.401 226.448L280.881 226.388Z" fill="white"/>
<path opacity="0.4" d="M282.212 219.222L282.44 217.246L281.877 217.562L281.689 219.162L282.212 219.222Z" fill="white"/>
<path opacity="0.4" d="M280.128 232.76L279.645 236.92L280.165 236.98L280.648 232.82L280.128 232.76Z" fill="white"/>
<path opacity="0.4" d="M279.565 237.415L279.219 240.438L279.743 240.467L280.089 237.474L279.565 237.415Z" fill="white"/>
<path opacity="0.4" d="M291.889 227.622L291.449 231.419L291.969 231.479L292.409 227.682L291.889 227.622Z" fill="white"/>
<path opacity="0.4" d="M292.461 223.035L291.984 227.146L292.504 227.207L292.981 223.096L292.461 223.035Z" fill="white"/>
<path opacity="0.4" d="M291.136 233.992L290.654 238.152L291.174 238.213L291.656 234.053L291.136 233.992Z" fill="white"/>
<path opacity="0.4" d="M293.265 220.506L293.661 217.108C293.501 217.006 293.337 216.914 293.167 216.831L292.742 220.446L293.265 220.506Z" fill="white"/>
<path opacity="0.4" d="M290.618 238.699L290.332 241.159L290.865 241.198L291.142 238.758L290.618 238.699Z" fill="white"/>
<path opacity="0.2" d="M284.599 233.266L284.115 237.426L286.686 237.725L287.169 233.564L284.599 233.266Z" fill="black"/>
<path opacity="0.2" d="M285.885 222.261L285.407 226.372L287.978 226.671L288.456 222.56L285.885 222.261Z" fill="black"/>
<path opacity="0.2" d="M288.732 219.981L289.186 216.129L286.973 215.872L286.608 215.921L286.173 219.685L288.732 219.981Z" fill="black"/>
<path opacity="0.2" d="M284.05 237.939L283.724 240.725L286.302 240.893L286.618 238.236L284.05 237.939Z" fill="black"/>
<path opacity="0.2" d="M285.332 226.882L284.891 230.679L287.461 230.978L287.903 227.18L285.332 226.882Z" fill="black"/>
<path opacity="0.2" d="M287.475 230.981L287.177 233.552L291.18 234.017L291.478 231.446L287.475 230.981Z" fill="white"/>
<path opacity="0.2" d="M280.936 230.218L280.637 232.789L284.591 233.249L284.89 230.678L280.936 230.218Z" fill="white"/>
<path opacity="0.2" d="M280.415 230.155L276.869 229.75L276.74 232.328L280.118 232.723L280.415 230.155Z" fill="white"/>
<path opacity="0.2" d="M291.695 234.038L294.48 234.364C294.698 233.564 294.925 232.714 295.142 231.845L291.991 231.479L291.695 234.038Z" fill="white"/>
<path opacity="0.4" d="M280.427 230.172L280.128 232.742L280.648 232.803L280.947 230.232L280.427 230.172Z" fill="white"/>
<path opacity="0.2" d="M280.427 230.172L280.128 232.742L280.648 232.803L280.947 230.232L280.427 230.172Z" fill="white"/>
<path opacity="0.4" d="M291.487 231.465L291.188 234.036L291.708 234.097L292.007 231.526L291.487 231.465Z" fill="white"/>
<path opacity="0.2" d="M291.487 231.465L291.188 234.036L291.708 234.097L292.007 231.526L291.487 231.465Z" fill="white"/>
<path opacity="0.2" d="M284.9 230.689L284.602 233.26L287.172 233.559L287.471 230.988L284.9 230.689Z" fill="black"/>
<path opacity="0.2" d="M284.9 230.689L284.602 233.26L287.172 233.559L287.471 230.988L284.9 230.689Z" fill="white"/>
<path opacity="0.2" d="M281.393 221.729L281.689 219.16L279.99 218.963C279.242 219.652 278.609 220.456 278.113 221.343L281.393 221.729Z" fill="white"/>
<path opacity="0.2" d="M292.969 223.072L296.663 223.497V223.447C296.751 222.588 296.694 221.72 296.495 220.879L293.255 220.504L292.969 223.072Z" fill="white"/>
<path opacity="0.2" d="M288.715 219.956L288.417 222.526L292.42 222.991L292.718 220.42L288.715 219.956Z" fill="white"/>
<path opacity="0.2" d="M282.195 219.189L281.896 221.76L285.85 222.219L286.149 219.649L282.195 219.189Z" fill="white"/>
<path opacity="0.4" d="M281.672 219.131L281.374 221.702L281.894 221.763L282.192 219.192L281.672 219.131Z" fill="white"/>
<path opacity="0.2" d="M281.672 219.131L281.374 221.702L281.894 221.763L282.192 219.192L281.672 219.131Z" fill="white"/>
<path opacity="0.4" d="M292.745 220.444L292.447 223.015L292.967 223.075L293.265 220.504L292.745 220.444Z" fill="white"/>
<path opacity="0.2" d="M292.745 220.444L292.447 223.015L292.967 223.075L293.265 220.504L292.745 220.444Z" fill="white"/>
<path opacity="0.2" d="M286.159 219.66L285.861 222.23L288.431 222.529L288.73 219.959L286.159 219.66Z" fill="black"/>
<path opacity="0.2" d="M286.159 219.66L285.861 222.23L288.431 222.529L288.73 219.959L286.159 219.66Z" fill="white"/>
<path opacity="0.3" d="M291.142 238.759L293.068 238.986C293.127 238.818 293.176 238.65 293.236 238.472L291.211 238.235L291.142 238.759Z" fill="black"/>
<path opacity="0.3" d="M279.634 236.891L276.533 236.525L276.503 237.059L279.565 237.414L279.634 236.891Z" fill="black"/>
<path opacity="0.3" d="M286.696 237.729L286.635 238.249L290.638 238.715L290.699 238.195L286.696 237.729Z" fill="black"/>
<path opacity="0.3" d="M280.178 236.98L280.118 237.5L284.072 237.96L284.132 237.44L280.178 236.98Z" fill="black"/>
<path opacity="0.4" d="M279.655 236.922L279.595 237.442L280.115 237.503L280.175 236.983L279.655 236.922Z" fill="white"/>
<path opacity="0.3" d="M279.655 236.922L279.595 237.442L280.115 237.503L280.175 236.983L279.655 236.922Z" fill="black"/>
<path opacity="0.4" d="M290.709 238.206L290.648 238.726L291.168 238.786L291.229 238.266L290.709 238.206Z" fill="white"/>
<path opacity="0.3" d="M290.709 238.206L290.648 238.726L291.168 238.786L291.229 238.266L290.709 238.206Z" fill="black"/>
<path opacity="0.2" d="M284.123 237.444L284.062 237.964L286.633 238.263L286.694 237.743L284.123 237.444Z" fill="black"/>
<path opacity="0.3" d="M284.123 237.444L284.062 237.964L286.633 238.263L286.694 237.743L284.123 237.444Z" fill="black"/>
<path opacity="0.3" d="M280.918 225.838L277.076 225.394L277.056 225.917L280.849 226.362L280.918 225.838Z" fill="black"/>
<path opacity="0.3" d="M287.957 226.657L287.897 227.177L291.9 227.642L291.96 227.122L287.957 226.657Z" fill="black"/>
<path opacity="0.3" d="M292.426 227.706L295.972 228.121C295.972 227.943 296.031 227.775 296.071 227.597L292.495 227.183L292.426 227.706Z" fill="black"/>
<path opacity="0.3" d="M281.447 225.923L281.387 226.443L285.341 226.903L285.401 226.383L281.447 225.923Z" fill="black"/>
<path opacity="0.4" d="M280.898 225.825L280.838 226.345L281.358 226.405L281.418 225.885L280.898 225.825Z" fill="white"/>
<path opacity="0.3" d="M280.898 225.825L280.838 226.345L281.358 226.405L281.418 225.885L280.898 225.825Z" fill="black"/>
<path opacity="0.4" d="M291.988 227.149L291.928 227.669L292.448 227.729L292.508 227.209L291.988 227.149Z" fill="white"/>
<path opacity="0.3" d="M291.988 227.149L291.928 227.669L292.448 227.729L292.508 227.209L291.988 227.149Z" fill="black"/>
<path opacity="0.2" d="M285.402 226.375L285.341 226.896L287.912 227.194L287.972 226.674L285.402 226.375Z" fill="black"/>
<path opacity="0.3" d="M285.402 226.375L285.341 226.896L287.912 227.194L287.972 226.674L285.402 226.375Z" fill="black"/>
<path opacity="0.3" d="M292.465 216.506C291.428 216.106 290.335 215.87 289.226 215.805V216.131L292.465 216.506Z" fill="black"/>
<path opacity="0.2" d="M289.225 215.803C288.474 215.762 287.721 215.785 286.973 215.872L289.186 216.129L289.225 215.803Z" fill="black"/>
<path opacity="0.3" d="M289.225 215.803C288.474 215.762 287.721 215.785 286.973 215.872L289.186 216.129L289.225 215.803Z" fill="black"/>
<path d="M238.514 229.455L243.117 218.284C243.117 218.284 236.351 220.556 236.202 212.456C236.202 212.456 232.469 223.835 223.312 216.664C223.312 216.664 222.631 224.645 220.349 227.292C218.067 229.939 213.188 230.058 213.188 230.058C213.188 230.058 216.625 233.673 216.694 235.738C216.763 237.802 213 240.133 213 240.133L222.562 242.859C222.562 242.859 218.818 242.099 218.996 237.308C219.174 232.517 223.984 225.04 231.6 222.284C239.215 219.528 241.349 222.097 238.514 229.455Z" fill="white"/>
</svg>
