<svg width="24" height="25" viewBox="0 0 24 25" fill="none" xmlns="http://www.w3.org/2000/svg">
<path d="M19.2 3.03418H4.8C3.81 3.03418 3 3.84418 3 4.83418V19.2342C3 20.2242 3.81 21.0342 4.8 21.0342H19.2C20.19 21.0342 21 20.2242 21 19.2342V4.83418C21 3.84418 20.19 3.03418 19.2 3.03418ZM8.4 18.3342H5.7V10.2342H8.4V18.3342ZM7.05 8.70418C6.15 8.70418 5.43 7.98418 5.43 7.08418C5.43 6.18418 6.15 5.46418 7.05 5.46418C7.95 5.46418 8.67 6.18418 8.67 7.08418C8.67 7.98418 7.95 8.70418 7.05 8.70418ZM18.3 18.3342H15.6V13.5642C15.6 12.8442 14.97 12.2142 14.25 12.2142C13.53 12.2142 12.9 12.8442 12.9 13.5642V18.3342H10.2V10.2342H12.9V11.3142C13.35 10.5942 14.34 10.0542 15.15 10.0542C16.86 10.0542 18.3 11.4942 18.3 13.2042V18.3342Z" fill="#4D596B"/>
</svg>
