<svg width="78" height="77" viewBox="0 0 78 77" fill="none" xmlns="http://www.w3.org/2000/svg">
<rect x="6.5" y="6" width="65" height="65" rx="32.5" fill="#DCF5FF"/>
<path d="M43.375 46.5938H34.625C31.4312 46.5938 29.5938 44.7563 29.5938 41.5625V35.4375C29.5938 32.2437 31.4312 30.4062 34.625 30.4062H43.375C46.5688 30.4062 48.4062 32.2437 48.4062 35.4375V41.5625C48.4062 44.7563 46.5688 46.5938 43.375 46.5938ZM34.625 31.7188C32.1225 31.7188 30.9062 32.935 30.9062 35.4375V41.5625C30.9062 44.065 32.1225 45.2812 34.625 45.2812H43.375C45.8775 45.2812 47.0938 44.065 47.0938 41.5625V35.4375C47.0938 32.935 45.8775 31.7188 43.375 31.7188H34.625Z" fill="#00B5E8"/>
<path d="M38.9994 39.2612C38.2644 39.2612 37.5207 39.0337 36.9519 38.57L34.2132 36.3825C33.9332 36.155 33.8807 35.7437 34.1082 35.4637C34.3357 35.1837 34.7469 35.1312 35.0269 35.3587L37.7657 37.5462C38.4307 38.08 39.5594 38.08 40.2244 37.5462L42.9632 35.3587C43.2432 35.1312 43.6632 35.175 43.8819 35.4637C44.1094 35.7437 44.0657 36.1637 43.7769 36.3825L41.0382 38.57C40.4782 39.0337 39.7344 39.2612 38.9994 39.2612Z" fill="#00B5E8"/>
<rect x="6.5" y="6" width="65" height="65" rx="32.5" stroke="#F9FDFE" stroke-width="12"/>
</svg>
