<svg width="16" height="16" viewBox="0 0 16 16" fill="none" xmlns="http://www.w3.org/2000/svg">
<path fill-rule="evenodd" clip-rule="evenodd" d="M8 16C12.4183 16 16 12.4183 16 8C16 3.58172 12.4183 0 8 0C3.58172 0 0 3.58172 0 8C0 12.4183 3.58172 16 8 16ZM11.8566 6.19113C12.1002 5.85614 12.0261 5.38708 11.6911 5.14345C11.3561 4.89982 10.8871 4.97388 10.6434 5.30887L7.15969 10.099L5.28033 8.21967C4.98744 7.92678 4.51256 7.92678 4.21967 8.21967C3.92678 8.51256 3.92678 8.98744 4.21967 9.28033L6.71967 11.7803C6.87477 11.9354 7.08999 12.0149 7.30867 11.9977C7.52734 11.9805 7.72754 11.8685 7.85655 11.6911L11.8566 6.19113Z" fill="#00B5E8"/>
</svg>
